<?xml version="1.0" encoding="UTF-8" standalone="no"?>
<!DOCTYPE svg PUBLIC "-//W3C//DTD SVG 1.1//EN"
"http://www.w3.org/Graphics/SVG/1.1/DTD/svg11.dtd">
<svg viewBox="0 0 935 1210" version="1.1" xmlns="http://www.w3.org/2000/svg" xmlns:xlink="http://www.w3.org/1999/xlink">
<defs>
<style type="text/css"><![CDATA[
.g0{
}
]]></style>
<path d="M577,612c0,0,94,0,149,16c0,0,55,17,88,63c0,0,33,46,33,103c0,0,0,75,-55,127c0,0,-54,53,-180,53H267V612ZM122,0V1094H606c0,0,100,0,167,-13c0,0,67,-13,118,-53c0,0,50,-41,78,-103c0,0,27,-62,27,-131c0,0,0,-123,-78,-199c0,0,-79,-75,-229,-95v-3c0,0,110,-49,206,-199L1086,0H904C904,0,741,258,701,317c0,0,-39,59,-83,101c0,0,-44,42,-82,53c0,0,-38,12,-102,12H267V0Z"
id="f0_4"
transform="scale(0.001,-0.001)"/>

<path d="M360,87c0,0,100,0,175,60c0,0,76,59,76,201v49c0,0,-105,-35,-257,-56c0,0,-153,-20,-153,-128c0,0,0,-55,41,-90c0,0,41,-36,118,-36ZM328,-18c0,0,-125,0,-197,62c0,0,-73,63,-73,166c0,0,0,98,70,162c0,0,70,64,242,85l125,18c0,0,70,11,116,28c0,0,0,60,-4,85c0,0,-3,25,-22,52c0,0,-18,27,-58,43c0,0,-41,17,-108,17c0,0,-87,0,-137,-32c0,0,-51,-32,-69,-120L81,565c0,0,22,122,111,183c0,0,90,61,247,61c0,0,142,0,209,-42c0,0,67,-42,82,-102c0,0,15,-59,15,-153V331c0,0,0,-165,7,-221c0,0,6,-56,37,-110H648c0,0,-20,37,-28,98C620,98,485,-18,328,-18Z"
id="f0_5"
transform="scale(0.001,-0.001)"/>

<path d="M102,0V1094H236V701c0,0,96,108,239,108c0,0,77,0,147,-31c0,0,70,-31,99,-96c0,0,28,-65,28,-181V0H614V500c0,0,0,97,-42,145c0,0,-42,49,-124,49c0,0,-82,0,-147,-57c0,0,-65,-57,-65,-204V0Z"
id="f0_6"
transform="scale(0.001,-0.001)"/>

<path d="M102,0V791H236V0Zm0,941v153H236V941Z"
id="f0_7"
transform="scale(0.001,-0.001)"/>

<path d="M102,0V1094H236V0Z"
id="f0_8"
transform="scale(0.001,-0.001)"/>

<path d="M112,0V1094H257V551l543,543H996L538,650L1016,0H825L437,553L257,379V0Z"
id="f0_9"
transform="scale(0.001,-0.001)"/>

<path d="M437,92c0,0,93,0,154,80c0,0,61,80,61,225c0,0,0,139,-56,221c0,0,-56,82,-154,82c0,0,-97,0,-157,-85c0,0,-59,-84,-59,-213c0,0,0,-126,25,-179c0,0,24,-54,74,-92c0,0,49,-39,112,-39ZM448,-18c0,0,-140,0,-217,117h-3V0H102V1094H236V703h4c0,0,75,106,214,106c0,0,152,0,244,-111c0,0,92,-111,92,-290c0,0,0,-207,-103,-317C687,91,585,-18,448,-18Z"
id="f0_a"
transform="scale(0.001,-0.001)"/>

<path d="M104,0V791H225V680h3c0,0,42,64,104,97c0,0,63,32,145,32c0,0,62,0,124,-22c0,0,61,-22,95,-67c0,0,35,-45,44,-96c0,0,9,-50,9,-137V0H614V481c0,0,0,122,-44,167c0,0,-43,46,-121,46c0,0,-60,0,-113,-29c0,0,-53,-29,-76,-82c0,0,-22,-53,-22,-150V0Z"
id="f0_b"
transform="scale(0.001,-0.001)"/>

<path d="M685,448c0,0,-134,355,-152,403c0,0,-17,48,-38,128h-3c0,0,-21,-110,-56,-204L313,448ZM0,0L419,1094H574L1021,0H857L729,333H272L151,0Z"
id="f0_c"
transform="scale(0.001,-0.001)"/>

<path d="M99,0V791H220V681h3c0,0,81,128,237,128c0,0,87,0,143,-34c0,0,56,-35,82,-104c0,0,88,138,244,138c0,0,123,0,184,-66c0,0,62,-66,62,-199V0H1041V500c0,0,0,55,-8,94c0,0,-7,39,-38,70c0,0,-31,30,-97,30c0,0,-79,0,-136,-55c0,0,-58,-56,-58,-179V0H570V515c0,0,0,103,-36,141c0,0,-36,38,-103,38c0,0,-86,0,-142,-60c0,0,-56,-60,-56,-223V0Z"
id="f0_d"
transform="scale(0.001,-0.001)"/>

<path d="M652,472c0,0,-8,121,-75,174c0,0,-67,54,-146,54c0,0,-95,0,-156,-64c0,0,-61,-63,-71,-164ZM439,-18c0,0,-179,0,-279,109C160,91,60,200,60,389c0,0,0,188,97,304c0,0,97,116,274,116c0,0,87,0,167,-38c0,0,80,-38,136,-129c0,0,56,-91,56,-280H197c0,0,8,-131,75,-201c0,0,67,-69,167,-69c0,0,76,0,129,40c0,0,52,41,80,123L786,238C786,238,752,114,662,48c0,0,-89,-66,-223,-66Z"
id="f0_e"
transform="scale(0.001,-0.001)"/>

<path d="M410,92c0,0,88,0,149,72c0,0,61,72,61,219c0,0,0,145,-56,231c0,0,-56,86,-160,86c0,0,-105,0,-158,-84c0,0,-54,-84,-54,-221c0,0,0,-98,29,-166c0,0,29,-69,80,-103c0,0,52,-34,109,-34ZM395,-18c0,0,-145,0,-242,115c0,0,-98,115,-98,298c0,0,0,192,92,303c0,0,92,111,242,111c0,0,142,0,216,-108h3v393H742V0H617V101h-3c0,0,-72,-119,-219,-119Z"
id="f0_f"
transform="scale(0.001,-0.001)"/>

<path d="M165,-215l-37,57c0,0,84,36,85,158H137V153H290V0c0,0,0,-94,-36,-144c0,0,-36,-50,-89,-71Z"
id="f0_g"
transform="scale(0.001,-0.001)"/>

<path d="M639,-18c0,0,-252,0,-406,153C233,135,79,288,79,542c0,0,0,155,63,289c0,0,63,134,186,208c0,0,123,73,300,73c0,0,184,0,296,-81c0,0,111,-81,150,-242L944,752c0,0,-30,118,-109,177c0,0,-79,59,-207,59c0,0,-198,0,-298,-120C330,868,229,747,229,551c0,0,0,-146,49,-243c0,0,49,-97,145,-146c0,0,95,-50,208,-50c0,0,172,0,319,113V427H628V558h463V153c0,0,-207,-171,-452,-171Z"
id="f0_h"
transform="scale(0.001,-0.001)"/>

<path d="M371,-18c0,0,-82,0,-153,38c0,0,-70,38,-94,106c0,0,-23,67,-23,175V791H235V353c0,0,0,-105,10,-151c0,0,10,-45,53,-75c0,0,42,-29,101,-29c0,0,76,0,143,52c0,0,67,53,67,219V791H744V0H624V116h-4c0,0,-91,-134,-249,-134Z"
id="f0_i"
transform="scale(0.001,-0.001)"/>

<path d="M37,-318c0,0,-52,0,-105,13l26,114c0,0,38,-11,62,-11c0,0,43,0,63,29c0,0,19,29,19,134V791H236V-42c0,0,0,-78,-10,-134c0,0,-10,-56,-54,-99c0,0,-44,-43,-135,-43ZM102,941v153H236V941Z"
id="f0_j"
transform="scale(0.001,-0.001)"/>

<path d="M98,0V791H220V672h3c0,0,64,137,168,137c0,0,69,0,138,-42L483,643c0,0,-50,29,-98,29c0,0,-75,0,-114,-67c0,0,-39,-68,-39,-189V0Z"
id="f0_k"
transform="scale(0.001,-0.001)"/>

<path d="M310,-9c0,0,-88,0,-128,30c0,0,-40,30,-49,78c0,0,-9,48,-9,133V688H26V791h98V988l134,82V791H392V688H258V225c0,0,0,-60,12,-85c0,0,13,-25,63,-25c0,0,29,0,59,6L411,1C411,1,351,-9,310,-9Z"
id="f0_l"
transform="scale(0.001,-0.001)"/>

<path d="M140,0V1094H286V0Z"
id="f0_m"
transform="scale(0.001,-0.001)"/>

<path d="M136,0V153H289V0Z"
id="f0_n"
transform="scale(0.001,-0.001)"/>

<path d="M101,0V1094H235V471L553,791H727L424,498L758,0H593L330,405L235,315V0Z"
id="f0_o"
transform="scale(0.001,-0.001)"/>

<path d="M497,385V879h-3L154,385ZM497,0V261H23V385l498,709H631V385H779V261H631V0Z"
id="f0_p"
transform="scale(0.001,-0.001)"/>

<path d="M668,108c0,0,100,0,186,114c0,0,86,114,86,262c0,0,0,102,-50,158c0,0,-50,56,-123,56c0,0,-111,0,-185,-124c0,0,-75,-124,-75,-250c0,0,0,-99,48,-158c0,0,48,-58,113,-58ZM840,-320c0,0,-361,0,-558,183C282,-137,86,46,86,350c0,0,0,193,87,375c0,0,87,183,254,286c0,0,166,103,397,103c0,0,290,0,464,-171c0,0,174,-171,174,-411c0,0,0,-211,-141,-373c0,0,-142,-161,-308,-161c0,0,-138,0,-144,124C869,122,761,0,640,0C640,0,526,0,448,95c0,0,-78,97,-78,238c0,0,0,175,118,325c0,0,118,150,268,150c0,0,142,0,226,-137l27,116h132c0,0,-109,-515,-119,-555c0,0,-10,-40,-10,-61c0,0,0,-24,16,-37c0,0,17,-13,35,-13c0,0,47,0,120,57c0,0,73,58,121,152c0,0,48,95,48,205c0,0,0,207,-154,339c0,0,-154,132,-380,132c0,0,-274,0,-448,-187C370,819,195,633,195,362c0,0,0,-278,175,-425c0,0,174,-147,468,-147c0,0,180,0,316,60c0,0,135,59,210,163h135c0,0,-81,-150,-252,-241c0,0,-172,-92,-407,-92Z"
id="f0_q"
transform="scale(0.001,-0.001)"/>

<path d="M407,110c0,0,85,0,152,68c0,0,66,68,66,229c0,0,0,141,-63,217c0,0,-64,76,-157,76c0,0,-95,0,-155,-78c0,0,-61,-77,-61,-212c0,0,0,-156,64,-228c0,0,63,-72,154,-72ZM392,-320c0,0,-134,0,-223,60c0,0,-90,60,-90,195L210,-85c0,0,7,-62,52,-94c0,0,45,-31,129,-31c0,0,104,0,153,42c0,0,48,43,59,104c0,0,11,61,11,168C614,104,527,0,394,0C394,0,239,0,146,114c0,0,-94,114,-94,288c0,0,0,175,91,291c0,0,91,116,252,116c0,0,141,0,229,-112h3v94H750V107c0,0,0,-168,-33,-251c0,0,-34,-83,-119,-129c0,0,-86,-47,-206,-47Z"
id="f0_r"
transform="scale(0.001,-0.001)"/>

<path d="M420,-18c0,0,-172,0,-266,112c0,0,-94,113,-94,300c0,0,0,154,54,247c0,0,54,93,135,131c0,0,81,37,171,37c0,0,122,0,209,-63c0,0,87,-63,107,-187L606,539c0,0,-20,80,-65,120c0,0,-45,41,-115,41c0,0,-113,0,-171,-80c0,0,-58,-80,-58,-223c0,0,0,-146,57,-226c0,0,57,-79,165,-79c0,0,86,0,136,49c0,0,49,50,62,149L750,274C750,274,724,122,631,52c0,0,-93,-70,-211,-70Z"
id="f0_s"
transform="scale(0.001,-0.001)"/>

<path d="M424,92c0,0,115,0,175,85c0,0,60,85,60,224c0,0,0,148,-68,223c0,0,-67,76,-167,76c0,0,-102,0,-167,-77c0,0,-66,-76,-66,-228c0,0,0,-150,67,-227c0,0,67,-76,166,-76Zm0,-110c0,0,-149,0,-260,99C164,81,54,180,54,395c0,0,0,209,106,312c0,0,107,102,264,102c0,0,161,0,266,-104c0,0,106,-104,106,-297c0,0,0,-233,-114,-330c0,0,-114,-96,-258,-96Z"
id="f0_t"
transform="scale(0.001,-0.001)"/>

<path d="M0,-36L316,1094H424L108,-36Z"
id="f0_u"
transform="scale(0.001,-0.001)"/>

<path d="M49,328V463H460V328Z"
id="f0_3"
transform="scale(0.001,-0.001)"/>

<path d="M47,0c0,0,0,93,65,187c0,0,64,95,241,237c0,0,108,87,193,182c0,0,85,95,85,191c0,0,0,83,-58,137c0,0,-59,54,-149,54c0,0,-90,0,-151,-55c0,0,-61,-56,-62,-166L73,783c0,0,13,153,109,235c0,0,97,81,245,81c0,0,162,0,251,-89c0,0,90,-89,90,-216c0,0,0,-105,-75,-212c0,0,-76,-108,-302,-289c0,0,-119,-95,-158,-163H771V0Z"
id="f0_v"
transform="scale(0.001,-0.001)"/>

<path d="M421,489c0,0,99,0,157,69c0,0,58,70,58,177c0,0,0,108,-60,181c0,0,-59,72,-152,72c0,0,-93,0,-157,-77c0,0,-64,-77,-64,-187c0,0,0,-103,63,-169c0,0,63,-66,155,-66ZM392,-18c0,0,-123,0,-206,67c0,0,-82,67,-100,205l128,10c0,0,31,-172,181,-172c0,0,124,0,190,113c0,0,65,113,65,310h-2c0,0,-40,-64,-109,-104c0,0,-69,-40,-150,-40c0,0,-135,0,-229,99c0,0,-94,99,-94,259c0,0,0,162,96,266c0,0,96,104,248,104c0,0,152,0,263,-119c0,0,111,-118,111,-410c0,0,0,-296,-101,-442C683,128,581,-18,392,-18Z"
id="f0_w"
transform="scale(0.001,-0.001)"/>

<path d="M424,92c0,0,109,0,164,105c0,0,55,104,55,342c0,0,0,166,-24,261c0,0,-24,95,-73,142c0,0,-49,46,-123,46c0,0,-108,0,-163,-106c0,0,-54,-107,-54,-343c0,0,0,-163,25,-259c0,0,24,-95,73,-142c0,0,48,-46,120,-46Zm0,-110c0,0,-355,0,-355,557c0,0,0,283,92,421c0,0,92,139,263,139c0,0,357,0,357,-560c0,0,0,-282,-92,-420c0,0,-92,-137,-265,-137Z"
id="f0_x"
transform="scale(0.001,-0.001)"/>

<path d="M226,0c0,0,5,223,110,490c0,0,105,266,272,459H73v130H781V975C781,975,620,798,502,538C502,538,384,278,363,0Z"
id="f0_y"
transform="scale(0.001,-0.001)"/>

<path d="M439,0V856c0,0,-101,-96,-270,-162V824c0,0,232,111,317,275h87V0Z"
id="f0_z"
transform="scale(0.001,-0.001)"/>

<path d="M506,-19c0,0,-207,0,-318,95C188,76,76,172,55,356l215,20c0,0,19,-108,79,-158c0,0,59,-51,160,-51c0,0,106,0,161,45c0,0,54,45,54,106c0,0,0,38,-23,66c0,0,-23,27,-80,47c0,0,-38,13,-177,48c0,0,-178,44,-249,108c0,0,-101,90,-101,220c0,0,0,84,47,157c0,0,48,73,137,111c0,0,89,38,216,38c0,0,206,0,310,-91c0,0,104,-90,109,-241L692,771c0,0,-14,85,-60,122c0,0,-47,37,-141,37c0,0,-96,0,-151,-40c0,0,-35,-25,-35,-68c0,0,0,-39,33,-66c0,0,42,-35,203,-73c0,0,162,-38,239,-79c0,0,77,-41,121,-111c0,0,44,-71,44,-175c0,0,0,-94,-53,-176C892,142,840,60,745,20c0,0,-96,-39,-239,-39Z"
id="f1_4"
transform="scale(0.001,-0.001)"/>

<path d="M369,-17c0,0,-80,0,-143,34c0,0,-64,35,-92,99c0,0,-28,63,-28,175V792H315V429c0,0,0,-167,11,-205c0,0,12,-37,43,-59c0,0,30,-22,77,-22c0,0,54,0,97,29c0,0,42,30,58,73c0,0,15,44,15,213V792H826V0H631V119C631,119,588,55,517,19c0,0,-70,-36,-148,-36Z"
id="f1_5"
transform="scale(0.001,-0.001)"/>

<path d="M94,0V792H287V684c0,0,104,127,247,127c0,0,75,0,131,-32c0,0,56,-31,92,-94c0,0,52,63,112,94c0,0,61,32,129,32c0,0,87,0,148,-36c0,0,60,-35,90,-104c0,0,21,-51,21,-164V0H1048V453c0,0,0,118,-21,152c0,0,-30,45,-90,45c0,0,-44,0,-83,-27c0,0,-38,-27,-56,-78c0,0,-17,-52,-17,-164V0H572V434c0,0,0,116,-11,150c0,0,-11,33,-35,50c0,0,-23,16,-64,16c0,0,-48,0,-87,-26c0,0,-38,-26,-55,-75c0,0,-17,-50,-17,-164V0Z"
id="f1_6"
transform="scale(0.001,-0.001)"/>

<path d="M380,130c0,0,57,0,108,37c0,0,38,29,50,70c0,0,9,27,9,102v42c0,0,-41,-13,-128,-32c0,0,-87,-19,-114,-36c0,0,-41,-30,-41,-74c0,0,0,-45,33,-77c0,0,33,-32,83,-32ZM318,-17c0,0,-122,0,-193,66c0,0,-70,66,-70,168c0,0,0,67,32,120c0,0,32,53,90,81c0,0,57,28,166,49c0,0,147,27,204,51v21c0,0,0,60,-30,86c0,0,-30,25,-112,25c0,0,-56,0,-87,-22c0,0,-32,-22,-51,-77L76,586c0,0,32,114,111,169c0,0,78,56,232,56c0,0,141,0,209,-34c0,0,69,-33,97,-84c0,0,28,-51,28,-188L750,260c0,0,0,-104,10,-154c0,0,10,-49,38,-106H591c0,0,-9,21,-21,62c0,0,-5,19,-7,25C563,87,509,35,448,8c0,0,-61,-25,-130,-25Z"
id="f1_7"
transform="scale(0.001,-0.001)"/>

<path d="M101,0V792H295V679c0,0,50,80,90,106c0,0,40,26,91,26c0,0,72,0,138,-40L549,589c0,0,-53,34,-99,34c0,0,-44,0,-74,-24c0,0,-31,-25,-48,-88c0,0,-18,-64,-18,-266V0Z"
id="f1_8"
transform="scale(0.001,-0.001)"/>

<path d="M199,-321c0,0,-61,0,-119,13L62,-144c0,0,49,-9,88,-9c0,0,73,0,108,43c0,0,35,42,54,109L11,792H234L423,230L608,792H825L546,30L495,-107c0,0,-27,-70,-52,-106c0,0,-25,-37,-58,-60c0,0,-32,-22,-79,-35c0,0,-48,-13,-107,-13Z"
id="f1_9"
transform="scale(0.001,-0.001)"/>

<path d="M458,245c0,0,-135,0,-232,96c0,0,-96,96,-96,232c0,0,0,136,96,232c0,0,96,96,232,96c0,0,136,0,232,-96c0,0,97,-96,97,-232c0,0,0,-136,-97,-232c0,0,-96,-96,-232,-96Z"
id="f0_10"
transform="scale(0.001,-0.001)"/>

<path d="M416,-18c0,0,-145,0,-239,84c0,0,-94,84,-110,223l134,18c0,0,21,-108,74,-162c0,0,53,-53,141,-53c0,0,94,0,159,66c0,0,65,66,65,161c0,0,0,92,-59,152c0,0,-60,61,-155,61c0,0,-39,0,-95,-14l16,118c0,0,54,0,85,5c0,0,31,5,70,25c0,0,39,20,64,58c0,0,26,38,26,94c0,0,0,81,-55,126c0,0,-54,44,-124,44c0,0,-82,0,-133,-51c0,0,-51,-52,-64,-147L81,815c0,0,26,142,116,213c0,0,89,71,213,71c0,0,136,0,227,-83c0,0,92,-82,92,-201c0,0,0,-153,-150,-220v-3c0,0,101,-20,153,-99c0,0,52,-78,52,-171c0,0,0,-149,-109,-245c0,0,-108,-95,-259,-95Z"
id="f0_11"
transform="scale(0.001,-0.001)"/>

<path d="M182,-320c0,0,-36,0,-87,15L81,-178c0,0,39,-12,76,-12c0,0,75,0,104,41c0,0,28,41,64,149L25,791H169L356,273c0,0,16,-48,35,-123h3c0,0,19,86,48,165L615,791H752L449,-12c0,0,-1,-2,-1,-6c0,0,-44,-134,-101,-218c0,0,-58,-84,-165,-84Z"
id="f0_12"
transform="scale(0.001,-0.001)"/>

<path d="M592,-18c0,0,-269,0,-392,168C200,150,78,318,78,554c0,0,0,262,144,410c0,0,144,148,371,148c0,0,160,0,273,-81c0,0,113,-81,159,-238L883,759c0,0,-36,115,-109,172c0,0,-73,57,-182,57c0,0,-179,0,-272,-117c0,0,-92,-118,-92,-315c0,0,0,-229,97,-340c0,0,97,-111,254,-111c0,0,128,0,208,70c0,0,81,69,113,208l144,-36c0,0,-48,-184,-167,-275c0,0,-119,-90,-285,-90Z"
id="f0_13"
transform="scale(0.001,-0.001)"/>

<path d="M535,-18c0,0,-231,0,-345,102C190,84,75,187,69,351l137,12c0,0,10,-131,101,-191c0,0,92,-60,222,-60c0,0,121,0,196,50c0,0,75,50,75,136c0,0,0,89,-78,130c0,0,-78,41,-263,81c0,0,-184,40,-266,112c0,0,-81,73,-81,188c0,0,0,132,103,217c0,0,103,86,280,86c0,0,182,0,293,-85c0,0,111,-86,118,-243L767,773c0,0,-9,104,-75,157c0,0,-67,52,-191,52c0,0,-112,0,-182,-41c0,0,-70,-42,-70,-122c0,0,0,-71,54,-105c0,0,54,-35,207,-69c0,0,136,-30,222,-62c0,0,86,-31,147,-97c0,0,61,-66,61,-177c0,0,0,-141,-112,-234c0,0,-113,-93,-293,-93Z"
id="f0_14"
transform="scale(0.001,-0.001)"/>

<path d="M121,0V1094H912V964H266V630H871V500H266V130H938V0Z"
id="f0_15"
transform="scale(0.001,-0.001)"/>

<path d="M386,-18c0,0,-150,0,-235,63c0,0,-85,64,-104,191l134,21c0,0,10,-83,61,-124c0,0,51,-41,143,-41c0,0,88,0,135,37c0,0,47,37,47,90c0,0,0,35,-22,57c0,0,-21,22,-54,32c0,0,-32,11,-146,39c0,0,-168,40,-222,98c0,0,-54,57,-54,137c0,0,0,99,79,163c0,0,79,64,212,64c0,0,142,0,221,-55c0,0,78,-56,94,-166L544,570c0,0,-9,65,-53,97c0,0,-43,33,-121,33c0,0,-77,0,-124,-26c0,0,-48,-26,-48,-76c0,0,0,-47,38,-68c0,0,38,-20,149,-49c0,0,125,-32,188,-57c0,0,62,-24,97,-69c0,0,34,-44,34,-123c0,0,0,-106,-86,-178c0,0,-87,-72,-232,-72Z"
id="f0_16"
transform="scale(0.001,-0.001)"/>

<path d="M433,0L9,1094H165L449,299c0,0,32,-76,57,-178h3c0,0,22,87,56,178l297,795h147L580,0Z"
id="f0_17"
transform="scale(0.001,-0.001)"/>

<path d="M392,0V964H34v130H900V964H538V0Z"
id="f0_18"
transform="scale(0.001,-0.001)"/>

<path d="M10,0L301,413L34,791H200c0,0,163,-245,177,-273L571,791H732L458,420L753,0H588L382,313L174,0Z"
id="f0_19"
transform="scale(0.001,-0.001)"/>

<path d="M437,92c0,0,94,0,156,78c0,0,61,78,61,232c0,0,0,146,-59,224c0,0,-59,78,-152,78c0,0,-95,0,-157,-87c0,0,-61,-87,-61,-226c0,0,0,-147,58,-223c0,0,59,-76,154,-76ZM104,-303V791H226V689h3c0,0,75,120,226,120c0,0,156,0,246,-113c0,0,90,-113,90,-294c0,0,0,-193,-99,-307C692,95,592,-18,446,-18c0,0,-127,0,-204,101h-4V-303Z"
id="f0_1a"
transform="scale(0.001,-0.001)"/>

<path d="M544,573c0,0,258,0,258,200c0,0,0,65,-34,116c0,0,-33,50,-82,63c0,0,-49,12,-145,12H263V573ZM118,0V1094H530c0,0,98,0,169,-10c0,0,70,-10,131,-50c0,0,60,-41,91,-111c0,0,31,-70,31,-146c0,0,0,-151,-97,-242c0,0,-98,-92,-313,-92H263V0Z"
id="f0_1b"
transform="scale(0.001,-0.001)"/>

<path d="M121,0V1094H269L840,235h3v859H981V0H833L261,859h-3V0Z"
id="f0_1c"
transform="scale(0.001,-0.001)"/>

<path d="M501,130c0,0,72,0,128,9c0,0,57,9,114,48c0,0,58,40,96,130c0,0,38,90,38,239c0,0,0,82,-14,153c0,0,-15,71,-54,130c0,0,-39,58,-90,86c0,0,-51,27,-99,33c0,0,-48,6,-123,6H267V130ZM122,0V1094H500c0,0,99,0,171,-10c0,0,71,-11,137,-50c0,0,65,-39,114,-107c0,0,49,-69,76,-158c0,0,28,-89,28,-216c0,0,0,-242,-114,-397C912,156,797,0,516,0Z"
id="f0_1d"
transform="scale(0.001,-0.001)"/>

<path d="M116,0V1094H333L592,319c0,0,43,-129,50,-162h3c0,0,20,64,58,176l261,761h192V0H1019V915h-3L701,0H571L258,930h-4V0Z"
id="f0_1e"
transform="scale(0.001,-0.001)"/>

<path d="M321,0L20,791H162L325,333c0,0,46,-129,55,-176h3c0,0,12,48,41,129L608,791H745L446,0Z"
id="f0_1f"
transform="scale(0.001,-0.001)"/>

<path d="M530,130c0,0,147,0,203,50c0,0,57,50,57,138c0,0,0,89,-60,138c0,0,-61,50,-218,50H258V130ZM495,636c0,0,73,0,123,8c0,0,50,8,88,43c0,0,38,35,38,109c0,0,0,78,-39,114c0,0,-38,37,-91,46c0,0,-54,8,-137,8H258V636ZM113,0V1094H524c0,0,199,0,281,-87c0,0,81,-86,81,-192c0,0,0,-72,-37,-133c0,0,-38,-61,-114,-100c0,0,103,-31,154,-102c0,0,51,-70,51,-162c0,0,0,-92,-46,-169C894,149,847,72,762,36C762,36,677,0,532,0Z"
id="f0_1g"
transform="scale(0.001,-0.001)"/>

<path d="M595,105c0,0,166,0,269,117c0,0,104,116,104,323c0,0,0,214,-105,329c0,0,-106,114,-265,114c0,0,-165,0,-271,-112C327,876,222,763,222,530c0,0,0,-190,103,-307c0,0,104,-118,270,-118Zm1,-123c0,0,-236,0,-380,160C216,142,72,302,72,533c0,0,0,270,145,424c0,0,146,155,379,155c0,0,230,0,376,-156c0,0,146,-156,146,-411c0,0,0,-254,-147,-409C971,136,824,-18,596,-18Z"
id="f0_1h"
transform="scale(0.001,-0.001)"/>

<path d="M131,0V688H12V791H131v86c0,0,0,60,11,108c0,0,12,49,60,88c0,0,48,39,148,39c0,0,60,0,125,-13L455,981c0,0,-40,7,-79,7c0,0,-49,0,-79,-20c0,0,-31,-21,-31,-102V791H419V688H266V0Z"
id="f0_1i"
transform="scale(0.001,-0.001)"/>

<path d="M31,0V108L535,686c0,0,-89,-5,-152,-5H60V791H707V704L278,203c0,0,-12,-16,-65,-73c0,0,-13,-12,-18,-20c0,0,77,6,170,6H732V0Z"
id="f0_1j"
transform="scale(0.001,-0.001)"/>

<path d="M122,0V1094H860V964H267V625H781V495H267V0Z"
id="f0_1k"
transform="scale(0.001,-0.001)"/>

<path d="M111,0V1093H922V908H332V666H881V481H332V185H943V0Z"
id="f1_a"
transform="scale(0.001,-0.001)"/>

<path d="M9,0L295,408L21,792H276L417,574L565,792H810L542,417L835,0H578L417,245L255,0Z"
id="f1_b"
transform="scale(0.001,-0.001)"/>

<path d="M493,149c0,0,73,0,122,58c0,0,48,59,48,193c0,0,0,124,-50,185c0,0,-50,60,-124,60c0,0,-77,0,-128,-59c0,0,-51,-59,-51,-176c0,0,0,-134,53,-198c0,0,53,-63,130,-63ZM104,-300V792H299V676c0,0,38,59,103,97c0,0,65,38,144,38c0,0,138,0,234,-109c0,0,97,-108,97,-301c0,0,0,-199,-98,-309C779,92,682,-17,544,-17c0,0,-65,0,-119,26c0,0,-53,26,-112,89V-300Z"
id="f1_c"
transform="scale(0.001,-0.001)"/>

<path d="M580,464c0,0,-2,91,-47,139c0,0,-45,47,-108,47c0,0,-69,0,-113,-50c0,0,-45,-50,-44,-136ZM433,-17c0,0,-207,0,-306,134c0,0,-78,109,-78,274c0,0,0,196,103,308c0,0,103,112,260,112c0,0,176,0,278,-117c0,0,103,-117,98,-358H264c0,0,2,-93,51,-145c0,0,48,-52,120,-52c0,0,49,0,83,27c0,0,33,27,50,86L777,217C777,217,737,102,650,42c0,0,-87,-59,-217,-59Z"
id="f1_d"
transform="scale(0.001,-0.001)"/>

<path d="M110,0V792H319V0Zm0,900v193H319V900Z"
id="f1_e"
transform="scale(0.001,-0.001)"/>

<path d="M108,0V792H302V676c0,0,104,135,262,135c0,0,69,0,127,-25c0,0,57,-25,87,-64c0,0,29,-39,41,-88c0,0,12,-50,12,-141V0H621V405c0,0,0,128,-13,166c0,0,-14,37,-44,58c0,0,-30,21,-73,21c0,0,-55,0,-98,-30c0,0,-44,-29,-60,-79c0,0,-16,-49,-16,-182V0Z"
id="f1_f"
transform="scale(0.001,-0.001)"/>

<path d="M444,-17c0,0,-174,0,-277,109C167,92,64,202,64,396c0,0,0,196,103,305c0,0,104,110,280,110c0,0,145,0,230,-63c0,0,86,-62,123,-190L594,521c0,0,-11,62,-48,93c0,0,-37,31,-96,31c0,0,-78,0,-125,-54c0,0,-46,-54,-46,-180c0,0,0,-141,47,-199c0,0,47,-58,127,-58c0,0,60,0,98,33c0,0,38,34,53,117L811,269C811,269,779,127,688,55c0,0,-91,-72,-244,-72Z"
id="f1_g"
transform="scale(0.001,-0.001)"/>

<path d="M470,154c0,0,82,0,137,62c0,0,55,63,55,182c0,0,0,116,-55,179c0,0,-55,62,-137,62c0,0,-82,0,-138,-62c0,0,-55,-63,-55,-180c0,0,0,-118,55,-181c0,0,56,-62,138,-62Zm1,-171c0,0,-109,0,-208,49c0,0,-99,49,-150,144c0,0,-51,95,-51,232c0,0,0,104,51,202c0,0,51,98,146,149c0,0,94,52,210,52c0,0,180,0,295,-117c0,0,114,-117,114,-295c0,0,0,-180,-115,-298C763,101,647,-17,471,-17Z"
id="f1_h"
transform="scale(0.001,-0.001)"/>

<path d="M134,0V627H18V792H134v60c0,0,0,100,21,149c0,0,21,50,78,81c0,0,57,31,144,31c0,0,90,0,175,-27L525,940c0,0,-50,12,-97,12c0,0,-45,0,-65,-21c0,0,-20,-22,-20,-83V792H500V627H343V0Z"
id="f1_i"
transform="scale(0.001,-0.001)"/>

<path d="M324,-17c0,0,-57,0,-102,18c0,0,-45,19,-67,50c0,0,-21,30,-29,81c0,0,-7,37,-7,148V625H23V792h96V949l210,124V792H471V625H329V306c0,0,0,-97,4,-113c0,0,4,-16,18,-26c0,0,15,-11,36,-11c0,0,29,0,84,21L489,14c0,0,-73,-31,-165,-31Z"
id="f1_j"
transform="scale(0.001,-0.001)"/>

<path d="M258,0L7,792H211L359,273L496,792H698L831,273L982,792h207L934,0H733L596,509L462,0Z"
id="f1_k"
transform="scale(0.001,-0.001)"/>

<path d="M496,185c0,0,93,0,134,10c0,0,54,14,89,46c0,0,35,32,58,105c0,0,22,74,22,200c0,0,0,127,-22,195c0,0,-23,68,-63,106c0,0,-40,38,-102,51c0,0,-46,10,-181,10H331V185ZM110,0V1093H514c0,0,136,0,208,-21c0,0,96,-28,165,-100c0,0,68,-73,104,-177c0,0,36,-105,36,-259c0,0,0,-135,-34,-233c0,0,-41,-119,-117,-193c0,0,-57,-56,-155,-87C721,23,648,0,526,0Z"
id="f1_l"
transform="scale(0.001,-0.001)"/>

<path d="M329,0L9,792H229L379,388L422,253c0,0,17,51,22,68c0,0,10,33,22,67L617,792H833L518,0Z"
id="f1_m"
transform="scale(0.001,-0.001)"/>

<path d="M110,0V1093H319V0Z"
id="f1_n"
transform="scale(0.001,-0.001)"/>

<path d="M105,0V1093H326V0Z"
id="f1_o"
transform="scale(0.001,-0.001)"/>

<path d="M357,-320c0,0,-124,158,-194,345c0,0,-71,187,-71,370c0,0,0,209,75,387c0,0,75,178,190,330h97c0,0,-133,-218,-178,-382c0,0,-45,-164,-45,-333c0,0,0,-360,223,-717Z"
id="f0_1l"
transform="scale(0.001,-0.001)"/>

<path d="M429,0V463L7,1094H184L424,726c0,0,36,-56,86,-147c0,0,32,61,331,515h169L574,463V0Z"
id="f0_1m"
transform="scale(0.001,-0.001)"/>

<path d="M310,0L19,1094H166L335,376c0,0,34,-141,42,-207c0,0,2,-14,2,-16h3c0,0,30,142,47,203l208,738H813L968,541c0,0,58,-206,85,-388h3c0,0,15,89,52,238l172,703h146L1124,0H985L747,862c0,0,-19,66,-24,100h-3L689,833L457,0Z"
id="f0_1n"
transform="scale(0.001,-0.001)"/>

<path d="M55,-320c0,0,133,218,178,381c0,0,45,164,45,333c0,0,0,361,-223,718h96c0,0,124,-158,195,-345c0,0,71,-187,71,-372c0,0,0,-207,-75,-385c0,0,-76,-178,-191,-330Z"
id="f0_1o"
transform="scale(0.001,-0.001)"/>

<path d="M383,178V477H84V602H383V901H509V602H808V477H509V178Z"
id="f0_1p"
transform="scale(0.001,-0.001)"/>

<path d="M359,0V908H34v185H903V908H580V0Z"
id="f1_p"
transform="scale(0.001,-0.001)"/>

<path d="M109,0V1093H318V691c0,0,101,120,243,120c0,0,72,0,131,-27c0,0,58,-27,87,-69c0,0,30,-42,41,-93c0,0,11,-50,11,-157V0H621V419c0,0,0,124,-12,158c0,0,-12,34,-42,53c0,0,-30,20,-76,20c0,0,-53,0,-94,-25c0,0,-41,-26,-60,-77c0,0,-19,-51,-19,-151V0Z"
id="f1_q"
transform="scale(0.001,-0.001)"/>

<path d="M109,0V1093H439L637,347l196,746h331V0H959V861L742,0H529L313,861V0Z"
id="f1_r"
transform="scale(0.001,-0.001)"/>

<path d="M454,148c0,0,73,0,123,61c0,0,51,62,51,184c0,0,0,137,-49,197c0,0,-49,60,-126,60c0,0,-75,0,-125,-59c0,0,-50,-60,-50,-177c0,0,0,-127,35,-184c0,0,50,-82,141,-82ZM394,-17c0,0,-137,0,-234,109c0,0,-97,110,-97,307c0,0,0,202,94,307c0,0,95,105,240,105c0,0,133,0,230,-111v393H836V0H642V116C642,116,593,48,527,15c0,0,-66,-32,-133,-32Z"
id="f1_s"
transform="scale(0.001,-0.001)"/>

<path d="M391,0L0,1093H239L517,285l267,808h235L629,0Z"
id="f1_t"
transform="scale(0.001,-0.001)"/>

<path d="M-13,-301v137H857V-301Z"
id="f1_u"
transform="scale(0.001,-0.001)"/>

<path d="M415,-17c0,0,-161,0,-255,65c0,0,-95,65,-124,178l210,32c0,0,14,-61,55,-92c0,0,41,-32,114,-32c0,0,82,0,123,30c0,0,27,21,27,56c0,0,0,24,-15,39c0,0,-15,15,-70,28c0,0,-253,56,-321,102c0,0,-93,64,-93,178c0,0,0,103,81,173c0,0,81,71,252,71c0,0,162,0,241,-54c0,0,79,-53,109,-157L551,564c0,0,-12,47,-48,71c0,0,-35,25,-101,25c0,0,-82,0,-118,-23c0,0,-24,-17,-24,-43c0,0,0,-22,21,-38c0,0,28,-21,195,-59c0,0,168,-38,234,-93c0,0,65,-56,65,-156c0,0,0,-109,-91,-187c0,0,-90,-78,-269,-78Z"
id="f1_v"
transform="scale(0.001,-0.001)"/>

<path d="M447,169c0,0,76,0,129,60c0,0,53,60,53,178c0,0,0,124,-50,183c0,0,-51,60,-129,60c0,0,-75,0,-124,-58c0,0,-48,-59,-48,-179c0,0,0,-127,48,-185c0,0,49,-59,121,-59Zm12,-490c0,0,-202,0,-286,69c0,0,-85,70,-85,176c0,0,0,10,1,25L329,-80c0,0,6,-42,27,-58c0,0,30,-22,95,-22c0,0,82,0,123,24c0,0,28,17,42,54c0,0,10,26,10,96l1,116C627,130,532,0,388,0C388,0,229,0,136,135c0,0,-73,107,-73,266c0,0,0,199,95,304c0,0,96,106,239,106c0,0,147,0,242,-129V792H835V81c0,0,0,-139,-23,-208c0,0,-23,-70,-65,-109c0,0,-42,-40,-111,-62c0,0,-70,-23,-177,-23Z"
id="f1_w"
transform="scale(0.001,-0.001)"/>

<path d="M103,0V1093H312V513L557,792H815L545,503L835,0H609L409,356L312,254V0Z"
id="f1_x"
transform="scale(0.001,-0.001)"/>

<path d="M267,347c0,0,-78,0,-133,55c0,0,-56,55,-56,133c0,0,0,78,56,134c0,0,55,55,133,55c0,0,78,0,134,-55c0,0,56,-56,56,-134c0,0,0,-78,-56,-133c0,0,-56,-55,-134,-55Z"
id="f0_1r"
transform="scale(0.001,-0.001)"/>

<path d="M251,0L7,791H147L319,165l27,107L487,791H625L732,377c0,0,45,-172,49,-195h3L964,791h131L847,0H707L582,475c0,0,-1,0,-16,64c0,0,-15,65,-15,70h-3L391,0Z"
id="f0_1s"
transform="scale(0.001,-0.001)"/>

<path d="M115,0V1094H260V130H799V0Z"
id="f0_1t"
transform="scale(0.001,-0.001)"/>

<path d="M335,-18c0,0,-147,0,-220,82c0,0,-74,82,-74,248l130,18c0,0,1,-109,42,-164c0,0,41,-54,122,-54c0,0,74,0,110,35c0,0,35,35,44,81c0,0,8,46,8,114v752H642V350c0,0,0,-201,-81,-285c0,0,-81,-83,-226,-83Z"
id="f0_1u"
transform="scale(0.001,-0.001)"/>

</defs>
<g fill="#000000" >
<use xlink:href="#f0_4" transform="matrix(24,0,0,24,73.3,116.5)"/>
<use xlink:href="#f0_5" transform="matrix(24,0,0,24,99.8,116.5)"/>
<use xlink:href="#f0_6" transform="matrix(24,0,0,24,120.2,116.5)"/>
<use xlink:href="#f0_7" transform="matrix(24,0,0,24,140.6,116.5)"/>
<use xlink:href="#f0_8" transform="matrix(24,0,0,24,148.7,116.5)"/>
<use xlink:href="#f0_9" transform="matrix(24,0,0,24,167,116.5)"/>
<use xlink:href="#f0_5" transform="matrix(24,0,0,24,191.4,116.5)"/>
<use xlink:href="#f0_a" transform="matrix(24,0,0,24,211.8,116.5)"/>
<use xlink:href="#f0_5" transform="matrix(24,0,0,24,232.2,116.5)"/>
<use xlink:href="#f0_b" transform="matrix(24,0,0,24,252.6,116.5)"/>
<use xlink:href="#f0_7" transform="matrix(24,0,0,24,273,116.5)"/>
<use xlink:href="#f0_c" transform="matrix(10,0,0,10,73.3,144.5)"/>
<use xlink:href="#f0_6" transform="matrix(10,0,0,10,83.5,144.5)"/>
<use xlink:href="#f0_d" transform="matrix(10,0,0,10,92,144.5)"/>
<use xlink:href="#f0_e" transform="matrix(10,0,0,10,104.7,144.5)"/>
<use xlink:href="#f0_f" transform="matrix(10,0,0,10,113.2,144.5)"/>
<use xlink:href="#f0_5" transform="matrix(10,0,0,10,121.7,144.5)"/>
<use xlink:href="#f0_a" transform="matrix(10,0,0,10,130.2,144.5)"/>
<use xlink:href="#f0_5" transform="matrix(10,0,0,10,138.7,144.5)"/>
<use xlink:href="#f0_f" transform="matrix(10,0,0,10,147.2,144.5)"/>
<use xlink:href="#f0_g" transform="matrix(10,0,0,10,155.7,144.5)"/>
<use xlink:href="#f0_h" transform="matrix(10,0,0,10,164.2,144.5)"/>
<use xlink:href="#f0_i" transform="matrix(10,0,0,10,176,144.5)"/>
<use xlink:href="#f0_j" transform="matrix(10,0,0,10,184.5,144.5)"/>
<use xlink:href="#f0_5" transform="matrix(10,0,0,10,187.9,144.5)"/>
<use xlink:href="#f0_k" transform="matrix(10,0,0,10,196.4,144.5)"/>
<use xlink:href="#f0_5" transform="matrix(10,0,0,10,201.5,144.5)"/>
<use xlink:href="#f0_l" transform="matrix(10,0,0,10,210,144.5)"/>
<use xlink:href="#f0_g" transform="matrix(10,0,0,10,214.2,144.5)"/>
<use xlink:href="#f0_m" transform="matrix(10,0,0,10,222.7,144.5)"/>
<use xlink:href="#f0_b" transform="matrix(10,0,0,10,226.9,144.5)"/>
<use xlink:href="#f0_f" transform="matrix(10,0,0,10,235.4,144.5)"/>
<use xlink:href="#f0_7" transform="matrix(10,0,0,10,243.9,144.5)"/>
<use xlink:href="#f0_5" transform="matrix(10,0,0,10,247.3,144.5)"/>
</g>
<path d="M84.8,166l-9.6,6.7v10.5c0,1.6,1.3,2.8,2.9,2.8H91.5c1.6,0,2.8,-1.2,2.8,-2.8V172.7Zm6.7,18.1H78.1c-.5,0,-.9,-.4,-.9,-.9v-8l7.6,5.1l7.6,-5.1v8c0,.5,-.4,.9,-.9,.9Z" class="g0"/>
<g fill="#000000" >
<use xlink:href="#f0_k" transform="matrix(10,0,0,10,111.5,183.3)"/>
<use xlink:href="#f0_5" transform="matrix(10,0,0,10,116.6,183.3)"/>
<use xlink:href="#f0_6" transform="matrix(10,0,0,10,125.1,183.3)"/>
<use xlink:href="#f0_7" transform="matrix(10,0,0,10,133.6,183.3)"/>
<use xlink:href="#f0_8" transform="matrix(10,0,0,10,137,183.3)"/>
<use xlink:href="#f0_n" transform="matrix(10,0,0,10,140.4,183.3)"/>
<use xlink:href="#f0_o" transform="matrix(10,0,0,10,144.6,183.3)"/>
<use xlink:href="#f0_5" transform="matrix(10,0,0,10,152.3,183.3)"/>
<use xlink:href="#f0_a" transform="matrix(10,0,0,10,160.8,183.3)"/>
<use xlink:href="#f0_5" transform="matrix(10,0,0,10,169.2,183.3)"/>
<use xlink:href="#f0_b" transform="matrix(10,0,0,10,177.7,183.3)"/>
<use xlink:href="#f0_7" transform="matrix(10,0,0,10,186.2,183.3)"/>
<use xlink:href="#f0_n" transform="matrix(10,0,0,10,189.6,183.3)"/>
<use xlink:href="#f0_p" transform="matrix(10,0,0,10,193.9,183.3)"/>
<use xlink:href="#f0_q" transform="matrix(10,0,0,10,202.4,183.3)"/>
<use xlink:href="#f0_r" transform="matrix(10,0,0,10,217.9,183.3)"/>
<use xlink:href="#f0_d" transform="matrix(10,0,0,10,226.4,183.3)"/>
<use xlink:href="#f0_5" transform="matrix(10,0,0,10,239.1,183.3)"/>
<use xlink:href="#f0_7" transform="matrix(10,0,0,10,247.6,183.3)"/>
<use xlink:href="#f0_8" transform="matrix(10,0,0,10,251,183.3)"/>
<use xlink:href="#f0_n" transform="matrix(10,0,0,10,254.4,183.3)"/>
<use xlink:href="#f0_s" transform="matrix(10,0,0,10,258.6,183.3)"/>
<use xlink:href="#f0_t" transform="matrix(10,0,0,10,266.2,183.3)"/>
<use xlink:href="#f0_d" transform="matrix(10,0,0,10,274.7,183.3)"/>
</g>
<path d="M96.3,199.5v19.4c0,1,-.8,1.8,-1.8,1.8H75.1c-1,0,-1.8,-.8,-1.8,-1.8V199.5c0,-1,.8,-1.8,1.8,-1.8H94.5c1,0,1.8,.8,1.8,1.8Zm-15.9,7.1H76.9v10.5h3.5Zm.2,-3.6c0,-.5,-.2,-1,-.6,-1.4c-.3,-.3,-.9,-.5,-1.4,-.5c-.7,0,-1.3,.4,-1.7,1c-.3,.6,-.3,1.3,0,1.9c.4,.6,1,1,1.7,1c.5,0,1.1,-.2,1.4,-.6c.4,-.3,.6,-.8,.6,-1.4Zm12.1,7.6c0,-3.2,-2,-4.3,-3.9,-4.3c-1.4,0,-2.6,.6,-3.3,1.8h-.1v-1.5H82.1v10.5h3.6v-5.7c-.1,-.6,.1,-1.2,.4,-1.6c.4,-.4,.9,-.7,1.5,-.7c1,0,1.6,.5,1.6,2.2v5.8h3.5Z" class="g0"/>
<g fill="#0073B1" >
<use xlink:href="#f0_8" transform="matrix(10,0,0,10,111.5,215.1)"/>
<use xlink:href="#f0_7" transform="matrix(10,0,0,10,114.9,215.1)"/>
<use xlink:href="#f0_b" transform="matrix(10,0,0,10,118.3,215.1)"/>
<use xlink:href="#f0_o" transform="matrix(10,0,0,10,126.8,215.1)"/>
<use xlink:href="#f0_e" transform="matrix(10,0,0,10,134.4,215.1)"/>
<use xlink:href="#f0_f" transform="matrix(10,0,0,10,142.9,215.1)"/>
<use xlink:href="#f0_7" transform="matrix(10,0,0,10,151.4,215.1)"/>
<use xlink:href="#f0_b" transform="matrix(10,0,0,10,154.8,215.1)"/>
<use xlink:href="#f0_n" transform="matrix(10,0,0,10,163.3,215.1)"/>
<use xlink:href="#f0_s" transform="matrix(10,0,0,10,167.6,215.1)"/>
<use xlink:href="#f0_t" transform="matrix(10,0,0,10,175.2,215.1)"/>
<use xlink:href="#f0_d" transform="matrix(10,0,0,10,183.7,215.1)"/>
<use xlink:href="#f0_u" transform="matrix(10,0,0,10,196.4,215.1)"/>
<use xlink:href="#f0_7" transform="matrix(10,0,0,10,200.6,215.1)"/>
<use xlink:href="#f0_b" transform="matrix(10,0,0,10,204,215.1)"/>
<use xlink:href="#f0_u" transform="matrix(10,0,0,10,212.5,215.1)"/>
<use xlink:href="#f0_k" transform="matrix(10,0,0,10,216.8,215.1)"/>
<use xlink:href="#f0_5" transform="matrix(10,0,0,10,221.8,215.1)"/>
<use xlink:href="#f0_6" transform="matrix(10,0,0,10,230.3,215.1)"/>
<use xlink:href="#f0_7" transform="matrix(10,0,0,10,238.8,215.1)"/>
<use xlink:href="#f0_8" transform="matrix(10,0,0,10,242.2,215.1)"/>
<use xlink:href="#f0_3" transform="matrix(10,0,0,10,245.6,215.1)"/>
<use xlink:href="#f0_o" transform="matrix(10,0,0,10,250.7,215.1)"/>
<use xlink:href="#f0_5" transform="matrix(10,0,0,10,258.3,215.1)"/>
<use xlink:href="#f0_a" transform="matrix(10,0,0,10,266.8,215.1)"/>
<use xlink:href="#f0_5" transform="matrix(10,0,0,10,275.3,215.1)"/>
<use xlink:href="#f0_b" transform="matrix(10,0,0,10,283.8,215.1)"/>
<use xlink:href="#f0_7" transform="matrix(10,0,0,10,292.3,215.1)"/>
<use xlink:href="#f0_3" transform="matrix(10,0,0,10,295.7,215.1)"/>
<use xlink:href="#f0_v" transform="matrix(10,0,0,10,300.8,215.1)"/>
<use xlink:href="#f0_p" transform="matrix(10,0,0,10,309.3,215.1)"/>
<use xlink:href="#f0_v" transform="matrix(10,0,0,10,317.8,215.1)"/>
<use xlink:href="#f0_w" transform="matrix(10,0,0,10,326.3,215.1)"/>
<use xlink:href="#f0_x" transform="matrix(10,0,0,10,334.8,215.1)"/>
<use xlink:href="#f0_y" transform="matrix(10,0,0,10,343.3,215.1)"/>
<use xlink:href="#f0_z" transform="matrix(10,0,0,10,351.8,215.1)"/>
<use xlink:href="#f0_w" transform="matrix(10,0,0,10,360.3,215.1)"/>
<use xlink:href="#f0_5" transform="matrix(10,0,0,10,368.8,215.1)"/>
</g>
<g fill="#000000" >
<use xlink:href="#f1_4" transform="matrix(14,0,0,14,73.3,258.5)"/>
<use xlink:href="#f1_5" transform="matrix(14,0,0,14,87.6,258.5)"/>
<use xlink:href="#f1_6" transform="matrix(14,0,0,14,100.6,258.5)"/>
<use xlink:href="#f1_6" transform="matrix(14,0,0,14,119.6,258.5)"/>
<use xlink:href="#f1_7" transform="matrix(14,0,0,14,138.7,258.5)"/>
<use xlink:href="#f1_8" transform="matrix(14,0,0,14,150.5,258.5)"/>
<use xlink:href="#f1_9" transform="matrix(14,0,0,14,158.9,258.5)"/>
<use xlink:href="#f0_10" transform="matrix(10,0,0,10,73.3,282.9)"/>
<use xlink:href="#f0_11" transform="matrix(10,0,0,10,86.7,282.9)"/>
<use xlink:href="#f0_k" transform="matrix(10,0,0,10,95.2,282.9)"/>
<use xlink:href="#f0_f" transform="matrix(10,0,0,10,100.3,282.9)"/>
<use xlink:href="#f0_12" transform="matrix(10,0,0,10,113,282.9)"/>
<use xlink:href="#f0_e" transform="matrix(10,0,0,10,120.7,282.9)"/>
<use xlink:href="#f0_5" transform="matrix(10,0,0,10,129.2,282.9)"/>
<use xlink:href="#f0_k" transform="matrix(10,0,0,10,137.7,282.9)"/>
<use xlink:href="#f0_13" transform="matrix(10,0,0,10,147,282.9)"/>
<use xlink:href="#f0_14" transform="matrix(10,0,0,10,158,282.9)"/>
<use xlink:href="#f0_15" transform="matrix(10,0,0,10,168.2,282.9)"/>
<use xlink:href="#f0_16" transform="matrix(10,0,0,10,182.6,282.9)"/>
<use xlink:href="#f0_l" transform="matrix(10,0,0,10,190.2,282.9)"/>
<use xlink:href="#f0_i" transform="matrix(10,0,0,10,194.5,282.9)"/>
<use xlink:href="#f0_f" transform="matrix(10,0,0,10,203,282.9)"/>
<use xlink:href="#f0_e" transform="matrix(10,0,0,10,211.5,282.9)"/>
<use xlink:href="#f0_b" transform="matrix(10,0,0,10,220,282.9)"/>
<use xlink:href="#f0_l" transform="matrix(10,0,0,10,228.4,282.9)"/>
<use xlink:href="#f0_5" transform="matrix(10,0,0,10,236.9,282.9)"/>
<use xlink:href="#f0_l" transform="matrix(10,0,0,10,245.4,282.9)"/>
<use xlink:href="#f0_17" transform="matrix(10,0,0,10,253.9,282.9)"/>
<use xlink:href="#f0_m" transform="matrix(10,0,0,10,264,282.9)"/>
<use xlink:href="#f0_18" transform="matrix(10,0,0,10,268.3,282.9)"/>
<use xlink:href="#f0_g" transform="matrix(10,0,0,10,277.6,282.9)"/>
<use xlink:href="#f0_17" transform="matrix(10,0,0,10,286.1,282.9)"/>
<use xlink:href="#f0_e" transform="matrix(10,0,0,10,296.2,282.9)"/>
<use xlink:href="#f0_8" transform="matrix(10,0,0,10,304.7,282.9)"/>
<use xlink:href="#f0_8" transform="matrix(10,0,0,10,308.1,282.9)"/>
<use xlink:href="#f0_t" transform="matrix(10,0,0,10,311.5,282.9)"/>
<use xlink:href="#f0_k" transform="matrix(10,0,0,10,320,282.9)"/>
<use xlink:href="#f0_e" transform="matrix(10,0,0,10,325.1,282.9)"/>
<use xlink:href="#f0_10" transform="matrix(10,0,0,10,73.3,304.3)"/>
<use xlink:href="#f0_15" transform="matrix(10,0,0,10,86.7,304.3)"/>
<use xlink:href="#f0_19" transform="matrix(10,0,0,10,96.9,304.3)"/>
<use xlink:href="#f0_1a" transform="matrix(10,0,0,10,104.5,304.3)"/>
<use xlink:href="#f0_e" transform="matrix(10,0,0,10,113,304.3)"/>
<use xlink:href="#f0_k" transform="matrix(10,0,0,10,121.5,304.3)"/>
<use xlink:href="#f0_7" transform="matrix(10,0,0,10,126.6,304.3)"/>
<use xlink:href="#f0_e" transform="matrix(10,0,0,10,130,304.3)"/>
<use xlink:href="#f0_b" transform="matrix(10,0,0,10,138.5,304.3)"/>
<use xlink:href="#f0_s" transform="matrix(10,0,0,10,147,304.3)"/>
<use xlink:href="#f0_e" transform="matrix(10,0,0,10,154.6,304.3)"/>
<use xlink:href="#f0_f" transform="matrix(10,0,0,10,163.1,304.3)"/>
<use xlink:href="#f0_7" transform="matrix(10,0,0,10,175.9,304.3)"/>
<use xlink:href="#f0_b" transform="matrix(10,0,0,10,179.3,304.3)"/>
<use xlink:href="#f0_1b" transform="matrix(10,0,0,10,192,304.3)"/>
<use xlink:href="#f0_12" transform="matrix(10,0,0,10,202.2,304.3)"/>
<use xlink:href="#f0_l" transform="matrix(10,0,0,10,209.8,304.3)"/>
<use xlink:href="#f0_6" transform="matrix(10,0,0,10,214,304.3)"/>
<use xlink:href="#f0_t" transform="matrix(10,0,0,10,222.5,304.3)"/>
<use xlink:href="#f0_b" transform="matrix(10,0,0,10,231,304.3)"/>
<use xlink:href="#f0_g" transform="matrix(10,0,0,10,239.5,304.3)"/>
<use xlink:href="#f0_1c" transform="matrix(10,0,0,10,248,304.3)"/>
<use xlink:href="#f0_t" transform="matrix(10,0,0,10,259,304.3)"/>
<use xlink:href="#f0_f" transform="matrix(10,0,0,10,267.5,304.3)"/>
<use xlink:href="#f0_e" transform="matrix(10,0,0,10,276,304.3)"/>
<use xlink:href="#f0_n" transform="matrix(10,0,0,10,284.5,304.3)"/>
<use xlink:href="#f0_j" transform="matrix(10,0,0,10,288.7,304.3)"/>
<use xlink:href="#f0_16" transform="matrix(10,0,0,10,292.1,304.3)"/>
<use xlink:href="#f0_g" transform="matrix(10,0,0,10,299.7,304.3)"/>
<use xlink:href="#f0_1d" transform="matrix(10,0,0,10,308.2,304.3)"/>
<use xlink:href="#f0_t" transform="matrix(10,0,0,10,319.2,304.3)"/>
<use xlink:href="#f0_s" transform="matrix(10,0,0,10,327.7,304.3)"/>
<use xlink:href="#f0_o" transform="matrix(10,0,0,10,335.4,304.3)"/>
<use xlink:href="#f0_e" transform="matrix(10,0,0,10,343,304.3)"/>
<use xlink:href="#f0_k" transform="matrix(10,0,0,10,351.5,304.3)"/>
<use xlink:href="#f0_g" transform="matrix(10,0,0,10,356.6,304.3)"/>
<use xlink:href="#f0_5" transform="matrix(10,0,0,10,365.1,304.3)"/>
<use xlink:href="#f0_b" transform="matrix(10,0,0,10,373.6,304.3)"/>
<use xlink:href="#f0_f" transform="matrix(10,0,0,10,382.1,304.3)"/>
<use xlink:href="#f0_1e" transform="matrix(10,0,0,10,394.8,304.3)"/>
<use xlink:href="#f0_7" transform="matrix(10,0,0,10,407.5,304.3)"/>
<use xlink:href="#f0_s" transform="matrix(10,0,0,10,410.9,304.3)"/>
<use xlink:href="#f0_k" transform="matrix(10,0,0,10,418.5,304.3)"/>
<use xlink:href="#f0_t" transform="matrix(10,0,0,10,423.6,304.3)"/>
<use xlink:href="#f0_16" transform="matrix(10,0,0,10,432.1,304.3)"/>
<use xlink:href="#f0_e" transform="matrix(10,0,0,10,439.8,304.3)"/>
<use xlink:href="#f0_k" transform="matrix(10,0,0,10,448.2,304.3)"/>
<use xlink:href="#f0_1f" transform="matrix(10,0,0,10,453.3,304.3)"/>
<use xlink:href="#f0_7" transform="matrix(10,0,0,10,461,304.3)"/>
<use xlink:href="#f0_s" transform="matrix(10,0,0,10,464.4,304.3)"/>
<use xlink:href="#f0_e" transform="matrix(10,0,0,10,472,304.3)"/>
<use xlink:href="#f0_16" transform="matrix(10,0,0,10,480.5,304.3)"/>
<use xlink:href="#f0_10" transform="matrix(10,0,0,10,73.3,325.7)"/>
<use xlink:href="#f0_m" transform="matrix(10,0,0,10,86.7,325.7)"/>
<use xlink:href="#f0_b" transform="matrix(10,0,0,10,91,325.7)"/>
<use xlink:href="#f0_l" transform="matrix(10,0,0,10,99.5,325.7)"/>
<use xlink:href="#f0_e" transform="matrix(10,0,0,10,103.7,325.7)"/>
<use xlink:href="#f0_k" transform="matrix(10,0,0,10,112.2,325.7)"/>
<use xlink:href="#f0_b" transform="matrix(10,0,0,10,117.3,325.7)"/>
<use xlink:href="#f0_5" transform="matrix(10,0,0,10,130,325.7)"/>
<use xlink:href="#f0_l" transform="matrix(10,0,0,10,138.5,325.7)"/>
<use xlink:href="#f0_f" transform="matrix(10,0,0,10,147,325.7)"/>
<use xlink:href="#f0_12" transform="matrix(10,0,0,10,155.5,325.7)"/>
<use xlink:href="#f0_l" transform="matrix(10,0,0,10,163.1,325.7)"/>
<use xlink:href="#f0_e" transform="matrix(10,0,0,10,167.3,325.7)"/>
<use xlink:href="#f0_n" transform="matrix(10,0,0,10,175.8,325.7)"/>
<use xlink:href="#f0_7" transform="matrix(10,0,0,10,180,325.7)"/>
<use xlink:href="#f0_b" transform="matrix(10,0,0,10,183.4,325.7)"/>
<use xlink:href="#f0_10" transform="matrix(10,0,0,10,73.3,347.1)"/>
<use xlink:href="#f0_1g" transform="matrix(10,0,0,10,86.7,347.1)"/>
<use xlink:href="#f0_5" transform="matrix(10,0,0,10,96.9,347.1)"/>
<use xlink:href="#f0_s" transform="matrix(10,0,0,10,105.4,347.1)"/>
<use xlink:href="#f0_o" transform="matrix(10,0,0,10,113,347.1)"/>
<use xlink:href="#f0_e" transform="matrix(10,0,0,10,120.7,347.1)"/>
<use xlink:href="#f0_b" transform="matrix(10,0,0,10,129.2,347.1)"/>
<use xlink:href="#f0_f" transform="matrix(10,0,0,10,137.7,347.1)"/>
<use xlink:href="#f0_f" transform="matrix(10,0,0,10,150.4,347.1)"/>
<use xlink:href="#f0_e" transform="matrix(10,0,0,10,158.9,347.1)"/>
<use xlink:href="#f0_1f" transform="matrix(10,0,0,10,167.4,347.1)"/>
<use xlink:href="#f0_e" transform="matrix(10,0,0,10,175,347.1)"/>
<use xlink:href="#f0_8" transform="matrix(10,0,0,10,183.5,347.1)"/>
<use xlink:href="#f0_t" transform="matrix(10,0,0,10,186.9,347.1)"/>
<use xlink:href="#f0_1a" transform="matrix(10,0,0,10,195.4,347.1)"/>
<use xlink:href="#f0_e" transform="matrix(10,0,0,10,203.9,347.1)"/>
<use xlink:href="#f0_k" transform="matrix(10,0,0,10,212.4,347.1)"/>
<use xlink:href="#f0_10" transform="matrix(10,0,0,10,73.3,368.5)"/>
<use xlink:href="#f0_c" transform="matrix(10,0,0,10,86.7,368.5)"/>
<use xlink:href="#f0_16" transform="matrix(10,0,0,10,96.9,368.5)"/>
<use xlink:href="#f0_1a" transform="matrix(10,0,0,10,104.5,368.5)"/>
<use xlink:href="#f0_7" transform="matrix(10,0,0,10,113,368.5)"/>
<use xlink:href="#f0_k" transform="matrix(10,0,0,10,116.4,368.5)"/>
<use xlink:href="#f0_7" transform="matrix(10,0,0,10,121.5,368.5)"/>
<use xlink:href="#f0_b" transform="matrix(10,0,0,10,124.9,368.5)"/>
<use xlink:href="#f0_r" transform="matrix(10,0,0,10,133.4,368.5)"/>
<use xlink:href="#f0_1d" transform="matrix(10,0,0,10,146.1,368.5)"/>
<use xlink:href="#f0_e" transform="matrix(10,0,0,10,157.2,368.5)"/>
<use xlink:href="#f0_1f" transform="matrix(10,0,0,10,165.7,368.5)"/>
<use xlink:href="#f0_t" transform="matrix(10,0,0,10,173.3,368.5)"/>
<use xlink:href="#f0_1a" transform="matrix(10,0,0,10,181.8,368.5)"/>
<use xlink:href="#f0_16" transform="matrix(10,0,0,10,190.3,368.5)"/>
<use xlink:href="#f0_e" transform="matrix(10,0,0,10,202.2,368.5)"/>
<use xlink:href="#f0_b" transform="matrix(10,0,0,10,210.6,368.5)"/>
<use xlink:href="#f0_r" transform="matrix(10,0,0,10,219.1,368.5)"/>
<use xlink:href="#f0_7" transform="matrix(10,0,0,10,227.6,368.5)"/>
<use xlink:href="#f0_b" transform="matrix(10,0,0,10,231,368.5)"/>
<use xlink:href="#f0_e" transform="matrix(10,0,0,10,239.5,368.5)"/>
<use xlink:href="#f0_e" transform="matrix(10,0,0,10,248,368.5)"/>
<use xlink:href="#f0_k" transform="matrix(10,0,0,10,256.5,368.5)"/>
<use xlink:href="#f0_10" transform="matrix(10,0,0,10,73.3,389.9)"/>
<use xlink:href="#f0_18" transform="matrix(10,0,0,10,86.7,389.9)"/>
<use xlink:href="#f0_e" transform="matrix(10,0,0,10,96.1,389.9)"/>
<use xlink:href="#f0_s" transform="matrix(10,0,0,10,104.5,389.9)"/>
<use xlink:href="#f0_6" transform="matrix(10,0,0,10,112.2,389.9)"/>
<use xlink:href="#f0_d" transform="matrix(10,0,0,10,124.9,389.9)"/>
<use xlink:href="#f0_e" transform="matrix(10,0,0,10,137.6,389.9)"/>
<use xlink:href="#f0_b" transform="matrix(10,0,0,10,146.1,389.9)"/>
<use xlink:href="#f0_l" transform="matrix(10,0,0,10,154.6,389.9)"/>
<use xlink:href="#f0_t" transform="matrix(10,0,0,10,158.9,389.9)"/>
<use xlink:href="#f0_k" transform="matrix(10,0,0,10,167.4,389.9)"/>
<use xlink:href="#f0_5" transform="matrix(10,0,0,10,176.7,389.9)"/>
<use xlink:href="#f0_l" transform="matrix(10,0,0,10,185.2,389.9)"/>
<use xlink:href="#f0_13" transform="matrix(10,0,0,10,193.6,389.9)"/>
<use xlink:href="#f0_14" transform="matrix(10,0,0,10,204.7,389.9)"/>
<use xlink:href="#f0_m" transform="matrix(10,0,0,10,214.8,389.9)"/>
<use xlink:href="#f0_17" transform="matrix(10,0,0,10,219.1,389.9)"/>
<use xlink:href="#f0_m" transform="matrix(10,0,0,10,229.2,389.9)"/>
<use xlink:href="#f0_18" transform="matrix(10,0,0,10,233.5,389.9)"/>
<use xlink:href="#f0_10" transform="matrix(10,0,0,10,73.3,411.3)"/>
<use xlink:href="#f0_1h" transform="matrix(10,0,0,10,86.7,411.3)"/>
<use xlink:href="#f0_b" transform="matrix(10,0,0,10,98.6,411.3)"/>
<use xlink:href="#f0_e" transform="matrix(10,0,0,10,107.1,411.3)"/>
<use xlink:href="#f0_t" transform="matrix(10,0,0,10,119.8,411.3)"/>
<use xlink:href="#f0_1i" transform="matrix(10,0,0,10,128.3,411.3)"/>
<use xlink:href="#f0_l" transform="matrix(10,0,0,10,136.8,411.3)"/>
<use xlink:href="#f0_6" transform="matrix(10,0,0,10,141,411.3)"/>
<use xlink:href="#f0_e" transform="matrix(10,0,0,10,149.5,411.3)"/>
<use xlink:href="#f0_t" transform="matrix(10,0,0,10,162.2,411.3)"/>
<use xlink:href="#f0_k" transform="matrix(10,0,0,10,170.7,411.3)"/>
<use xlink:href="#f0_r" transform="matrix(10,0,0,10,175.8,411.3)"/>
<use xlink:href="#f0_5" transform="matrix(10,0,0,10,184.3,411.3)"/>
<use xlink:href="#f0_b" transform="matrix(10,0,0,10,192.8,411.3)"/>
<use xlink:href="#f0_7" transform="matrix(10,0,0,10,201.3,411.3)"/>
<use xlink:href="#f0_1j" transform="matrix(10,0,0,10,204.7,411.3)"/>
<use xlink:href="#f0_e" transform="matrix(10,0,0,10,212.3,411.3)"/>
<use xlink:href="#f0_k" transform="matrix(10,0,0,10,220.8,411.3)"/>
<use xlink:href="#f0_16" transform="matrix(10,0,0,10,225.9,411.3)"/>
<use xlink:href="#f0_t" transform="matrix(10,0,0,10,237.8,411.3)"/>
<use xlink:href="#f0_1i" transform="matrix(10,0,0,10,246.3,411.3)"/>
<use xlink:href="#f0_13" transform="matrix(10,0,0,10,254.7,411.3)"/>
<use xlink:href="#f0_14" transform="matrix(10,0,0,10,265.8,411.3)"/>
<use xlink:href="#f0_m" transform="matrix(10,0,0,10,275.9,411.3)"/>
<use xlink:href="#f0_13" transform="matrix(10,0,0,10,280.2,411.3)"/>
<use xlink:href="#f0_18" transform="matrix(10,0,0,10,291.2,411.3)"/>
<use xlink:href="#f0_1k" transform="matrix(10,0,0,10,300.5,411.3)"/>
<use xlink:href="#f1_a" transform="matrix(14,0,0,14,73.3,451)"/>
<use xlink:href="#f1_b" transform="matrix(14,0,0,14,87.6,451)"/>
<use xlink:href="#f1_c" transform="matrix(14,0,0,14,99.5,451)"/>
<use xlink:href="#f1_d" transform="matrix(14,0,0,14,112.5,451)"/>
<use xlink:href="#f1_8" transform="matrix(14,0,0,14,124.4,451)"/>
<use xlink:href="#f1_e" transform="matrix(14,0,0,14,132.7,451)"/>
<use xlink:href="#f1_d" transform="matrix(14,0,0,14,138.7,451)"/>
<use xlink:href="#f1_f" transform="matrix(14,0,0,14,150.5,451)"/>
<use xlink:href="#f1_g" transform="matrix(14,0,0,14,163.6,451)"/>
<use xlink:href="#f1_d" transform="matrix(14,0,0,14,175.5,451)"/>
</g>
<image preserveAspectRatio="none" x="72" y="466" width="27" height="28" xlink:href="img/1.jpg"/>
<g fill="#000000" >
<use xlink:href="#f1_4" transform="matrix(12,0,0,12,106.9,484.5)"/>
<use xlink:href="#f1_h" transform="matrix(12,0,0,12,119.2,484.5)"/>
<use xlink:href="#f1_i" transform="matrix(12,0,0,12,130.3,484.5)"/>
<use xlink:href="#f1_j" transform="matrix(12,0,0,12,136.4,484.5)"/>
<use xlink:href="#f1_k" transform="matrix(12,0,0,12,142.5,484.5)"/>
<use xlink:href="#f1_7" transform="matrix(12,0,0,12,156.8,484.5)"/>
<use xlink:href="#f1_8" transform="matrix(12,0,0,12,167,484.5)"/>
<use xlink:href="#f1_d" transform="matrix(12,0,0,12,174.1,484.5)"/>
<use xlink:href="#f1_l" transform="matrix(12,0,0,12,189.4,484.5)"/>
<use xlink:href="#f1_d" transform="matrix(12,0,0,12,202.6,484.5)"/>
<use xlink:href="#f1_m" transform="matrix(12,0,0,12,212.8,484.5)"/>
<use xlink:href="#f1_d" transform="matrix(12,0,0,12,223,484.5)"/>
<use xlink:href="#f1_n" transform="matrix(12,0,0,12,233.2,484.5)"/>
<use xlink:href="#f1_h" transform="matrix(12,0,0,12,238.3,484.5)"/>
<use xlink:href="#f1_c" transform="matrix(12,0,0,12,249.5,484.5)"/>
<use xlink:href="#f1_6" transform="matrix(12,0,0,12,260.7,484.5)"/>
<use xlink:href="#f1_d" transform="matrix(12,0,0,12,276.9,484.5)"/>
<use xlink:href="#f1_f" transform="matrix(12,0,0,12,287.1,484.5)"/>
<use xlink:href="#f1_j" transform="matrix(12,0,0,12,298.3,484.5)"/>
<use xlink:href="#f1_o" transform="matrix(12,0,0,12,309.5,484.5)"/>
<use xlink:href="#f1_f" transform="matrix(12,0,0,12,314.6,484.5)"/>
<use xlink:href="#f1_j" transform="matrix(12,0,0,12,325.8,484.5)"/>
<use xlink:href="#f1_d" transform="matrix(12,0,0,12,331.9,484.5)"/>
<use xlink:href="#f1_8" transform="matrix(12,0,0,12,342.1,484.5)"/>
<use xlink:href="#f1_f" transform="matrix(12,0,0,12,349.2,484.5)"/>
<use xlink:href="#f0_1d" transform="matrix(12,0,0,12,106.9,510.2)"/>
<use xlink:href="#f0_12" transform="matrix(12,0,0,12,120.2,510.2)"/>
<use xlink:href="#f0_l" transform="matrix(12,0,0,12,129.3,510.2)"/>
<use xlink:href="#f0_e" transform="matrix(12,0,0,12,134.4,510.2)"/>
<use xlink:href="#f0_1l" transform="matrix(12,0,0,12,149.7,510.2)"/>
<use xlink:href="#f0_1m" transform="matrix(12,0,0,12,155.8,510.2)"/>
<use xlink:href="#f0_13" transform="matrix(12,0,0,12,168,510.2)"/>
<use xlink:href="#f0_1n" transform="matrix(12,0,0,12,186.3,510.2)"/>
<use xlink:href="#f0_v" transform="matrix(12,0,0,12,203.6,510.2)"/>
<use xlink:href="#f0_z" transform="matrix(12,0,0,12,213.8,510.2)"/>
<use xlink:href="#f0_1o" transform="matrix(12,0,0,12,224,510.2)"/>
<use xlink:href="#f0_1k" transform="matrix(10,0,0,10,106.9,532.9)"/>
<use xlink:href="#f0_e" transform="matrix(10,0,0,10,116.3,532.9)"/>
<use xlink:href="#f0_a" transform="matrix(10,0,0,10,124.8,532.9)"/>
<use xlink:href="#f0_v" transform="matrix(10,0,0,10,137.5,532.9)"/>
<use xlink:href="#f0_x" transform="matrix(10,0,0,10,146,532.9)"/>
<use xlink:href="#f0_v" transform="matrix(10,0,0,10,154.5,532.9)"/>
<use xlink:href="#f0_z" transform="matrix(10,0,0,10,163,532.9)"/>
<use xlink:href="#f0_3" transform="matrix(10,0,0,10,175.7,532.9)"/>
<use xlink:href="#f0_1b" transform="matrix(10,0,0,10,185,532.9)"/>
<use xlink:href="#f0_k" transform="matrix(10,0,0,10,195.2,532.9)"/>
<use xlink:href="#f0_e" transform="matrix(10,0,0,10,200.3,532.9)"/>
<use xlink:href="#f0_16" transform="matrix(10,0,0,10,208.8,532.9)"/>
<use xlink:href="#f0_e" transform="matrix(10,0,0,10,216.4,532.9)"/>
<use xlink:href="#f0_b" transform="matrix(10,0,0,10,224.9,532.9)"/>
<use xlink:href="#f0_l" transform="matrix(10,0,0,10,233.4,532.9)"/>
<use xlink:href="#f0_1l" transform="matrix(10,0,0,10,241.9,532.9)"/>
<use xlink:href="#f0_y" transform="matrix(10,0,0,10,246.9,532.9)"/>
<use xlink:href="#f0_d" transform="matrix(10,0,0,10,259.7,532.9)"/>
<use xlink:href="#f0_t" transform="matrix(10,0,0,10,272.4,532.9)"/>
<use xlink:href="#f0_b" transform="matrix(10,0,0,10,280.9,532.9)"/>
<use xlink:href="#f0_l" transform="matrix(10,0,0,10,289.4,532.9)"/>
<use xlink:href="#f0_6" transform="matrix(10,0,0,10,293.6,532.9)"/>
<use xlink:href="#f0_16" transform="matrix(10,0,0,10,302.1,532.9)"/>
<use xlink:href="#f0_1p" transform="matrix(10,0,0,10,314,532.9)"/>
<use xlink:href="#f0_1o" transform="matrix(10,0,0,10,322.9,532.9)"/>
</g>
<image preserveAspectRatio="none" x="72" y="570" width="27" height="27" xlink:href="img/2.jpg"/>
<g fill="#000000" >
<use xlink:href="#f1_p" transform="matrix(12,0,0,12,106.9,587.8)"/>
<use xlink:href="#f1_d" transform="matrix(12,0,0,12,116.8,587.8)"/>
<use xlink:href="#f1_g" transform="matrix(12,0,0,12,127,587.8)"/>
<use xlink:href="#f1_q" transform="matrix(12,0,0,12,137.2,587.8)"/>
<use xlink:href="#f1_r" transform="matrix(12,0,0,12,153.4,587.8)"/>
<use xlink:href="#f1_d" transform="matrix(12,0,0,12,168.7,587.8)"/>
<use xlink:href="#f1_f" transform="matrix(12,0,0,12,178.9,587.8)"/>
<use xlink:href="#f1_j" transform="matrix(12,0,0,12,190.1,587.8)"/>
<use xlink:href="#f1_h" transform="matrix(12,0,0,12,196.2,587.8)"/>
<use xlink:href="#f1_8" transform="matrix(12,0,0,12,207.4,587.8)"/>
<use xlink:href="#f0_13" transform="matrix(12,0,0,12,106.9,613.4)"/>
<use xlink:href="#f0_t" transform="matrix(12,0,0,12,120.2,613.4)"/>
<use xlink:href="#f0_d" transform="matrix(12,0,0,12,130.4,613.4)"/>
<use xlink:href="#f0_1a" transform="matrix(12,0,0,12,145.6,613.4)"/>
<use xlink:href="#f0_i" transform="matrix(12,0,0,12,155.8,613.4)"/>
<use xlink:href="#f0_l" transform="matrix(12,0,0,12,166,613.4)"/>
<use xlink:href="#f0_e" transform="matrix(12,0,0,12,171.1,613.4)"/>
<use xlink:href="#f0_k" transform="matrix(12,0,0,12,181.3,613.4)"/>
<use xlink:href="#f0_14" transform="matrix(12,0,0,12,192.5,613.4)"/>
<use xlink:href="#f0_t" transform="matrix(12,0,0,12,204.7,613.4)"/>
<use xlink:href="#f0_s" transform="matrix(12,0,0,12,214.9,613.4)"/>
<use xlink:href="#f0_7" transform="matrix(12,0,0,12,224.1,613.4)"/>
<use xlink:href="#f0_e" transform="matrix(12,0,0,12,228.1,613.4)"/>
<use xlink:href="#f0_l" transform="matrix(12,0,0,12,238.3,613.4)"/>
<use xlink:href="#f0_12" transform="matrix(12,0,0,12,243.4,613.4)"/>
<use xlink:href="#f0_t" transform="matrix(12,0,0,12,257.6,613.4)"/>
<use xlink:href="#f0_1i" transform="matrix(12,0,0,12,267.8,613.4)"/>
<use xlink:href="#f0_m" transform="matrix(12,0,0,12,278,613.4)"/>
<use xlink:href="#f0_b" transform="matrix(12,0,0,12,283.1,613.4)"/>
<use xlink:href="#f0_f" transform="matrix(12,0,0,12,293.3,613.4)"/>
<use xlink:href="#f0_7" transform="matrix(12,0,0,12,303.5,613.4)"/>
<use xlink:href="#f0_5" transform="matrix(12,0,0,12,307.5,613.4)"/>
<use xlink:href="#f0_3" transform="matrix(12,0,0,12,322.8,613.4)"/>
<use xlink:href="#f0_17" transform="matrix(12,0,0,12,334,613.4)"/>
<use xlink:href="#f0_m" transform="matrix(12,0,0,12,346.2,613.4)"/>
<use xlink:href="#f0_18" transform="matrix(12,0,0,12,351.3,613.4)"/>
<use xlink:href="#f0_14" transform="matrix(12,0,0,12,367.5,613.4)"/>
<use xlink:href="#f0_l" transform="matrix(12,0,0,12,379.7,613.4)"/>
<use xlink:href="#f0_i" transform="matrix(12,0,0,12,384.8,613.4)"/>
<use xlink:href="#f0_f" transform="matrix(12,0,0,12,395,613.4)"/>
<use xlink:href="#f0_e" transform="matrix(12,0,0,12,405.2,613.4)"/>
<use xlink:href="#f0_b" transform="matrix(12,0,0,12,415.4,613.4)"/>
<use xlink:href="#f0_l" transform="matrix(12,0,0,12,425.6,613.4)"/>
<use xlink:href="#f0_13" transform="matrix(12,0,0,12,435.8,613.4)"/>
<use xlink:href="#f0_6" transform="matrix(12,0,0,12,449,613.4)"/>
<use xlink:href="#f0_5" transform="matrix(12,0,0,12,459.2,613.4)"/>
<use xlink:href="#f0_1a" transform="matrix(12,0,0,12,469.4,613.4)"/>
<use xlink:href="#f0_l" transform="matrix(12,0,0,12,479.6,613.4)"/>
<use xlink:href="#f0_e" transform="matrix(12,0,0,12,484.6,613.4)"/>
<use xlink:href="#f0_k" transform="matrix(12,0,0,12,494.8,613.4)"/>
<use xlink:href="#f0_1d" transform="matrix(10,0,0,10,106.9,636.2)"/>
<use xlink:href="#f0_e" transform="matrix(10,0,0,10,118,636.2)"/>
<use xlink:href="#f0_s" transform="matrix(10,0,0,10,126.5,636.2)"/>
<use xlink:href="#f0_v" transform="matrix(10,0,0,10,138.3,636.2)"/>
<use xlink:href="#f0_x" transform="matrix(10,0,0,10,146.8,636.2)"/>
<use xlink:href="#f0_z" transform="matrix(10,0,0,10,155.3,636.2)"/>
<use xlink:href="#f0_w" transform="matrix(10,0,0,10,163.8,636.2)"/>
<use xlink:href="#f0_3" transform="matrix(10,0,0,10,176.5,636.2)"/>
<use xlink:href="#f0_1b" transform="matrix(10,0,0,10,185.9,636.2)"/>
<use xlink:href="#f0_k" transform="matrix(10,0,0,10,196,636.2)"/>
<use xlink:href="#f0_e" transform="matrix(10,0,0,10,201.1,636.2)"/>
<use xlink:href="#f0_16" transform="matrix(10,0,0,10,209.6,636.2)"/>
<use xlink:href="#f0_e" transform="matrix(10,0,0,10,217.3,636.2)"/>
<use xlink:href="#f0_b" transform="matrix(10,0,0,10,225.8,636.2)"/>
<use xlink:href="#f0_l" transform="matrix(10,0,0,10,234.3,636.2)"/>
<use xlink:href="#f0_1l" transform="matrix(10,0,0,10,242.7,636.2)"/>
<use xlink:href="#f0_z" transform="matrix(10,0,0,10,247.8,636.2)"/>
<use xlink:href="#f0_12" transform="matrix(10,0,0,10,260.5,636.2)"/>
<use xlink:href="#f0_e" transform="matrix(10,0,0,10,268.2,636.2)"/>
<use xlink:href="#f0_5" transform="matrix(10,0,0,10,276.7,636.2)"/>
<use xlink:href="#f0_k" transform="matrix(10,0,0,10,285.2,636.2)"/>
<use xlink:href="#f0_w" transform="matrix(10,0,0,10,294.5,636.2)"/>
<use xlink:href="#f0_d" transform="matrix(10,0,0,10,307.2,636.2)"/>
<use xlink:href="#f0_t" transform="matrix(10,0,0,10,319.9,636.2)"/>
<use xlink:href="#f0_b" transform="matrix(10,0,0,10,328.4,636.2)"/>
<use xlink:href="#f0_l" transform="matrix(10,0,0,10,336.9,636.2)"/>
<use xlink:href="#f0_6" transform="matrix(10,0,0,10,341.2,636.2)"/>
<use xlink:href="#f0_16" transform="matrix(10,0,0,10,349.6,636.2)"/>
<use xlink:href="#f0_1p" transform="matrix(10,0,0,10,361.5,636.2)"/>
<use xlink:href="#f0_1o" transform="matrix(10,0,0,10,370.4,636.2)"/>
<use xlink:href="#f1_a" transform="matrix(14,0,0,14,73.3,688.2)"/>
<use xlink:href="#f1_s" transform="matrix(14,0,0,14,87.6,688.2)"/>
<use xlink:href="#f1_5" transform="matrix(14,0,0,14,100.6,688.2)"/>
<use xlink:href="#f1_g" transform="matrix(14,0,0,14,113.7,688.2)"/>
<use xlink:href="#f1_7" transform="matrix(14,0,0,14,125.6,688.2)"/>
<use xlink:href="#f1_j" transform="matrix(14,0,0,14,137.5,688.2)"/>
<use xlink:href="#f1_e" transform="matrix(14,0,0,14,144.6,688.2)"/>
<use xlink:href="#f1_h" transform="matrix(14,0,0,14,150.5,688.2)"/>
<use xlink:href="#f1_f" transform="matrix(14,0,0,14,163.6,688.2)"/>
</g>
<image preserveAspectRatio="none" x="72" y="704" width="27" height="27" xlink:href="img/3.jpg"/>
<g fill="#000000" >
<use xlink:href="#f1_t" transform="matrix(12,0,0,12,106.9,721.6)"/>
<use xlink:href="#f1_o" transform="matrix(12,0,0,12,119.2,721.6)"/>
<use xlink:href="#f1_p" transform="matrix(12,0,0,12,124.2,721.6)"/>
<use xlink:href="#f1_u" transform="matrix(12,0,0,12,135.4,721.6)"/>
<use xlink:href="#f1_t" transform="matrix(12,0,0,12,145.6,721.6)"/>
<use xlink:href="#f1_d" transform="matrix(12,0,0,12,156.8,721.6)"/>
<use xlink:href="#f1_n" transform="matrix(12,0,0,12,167,721.6)"/>
<use xlink:href="#f1_n" transform="matrix(12,0,0,12,172.1,721.6)"/>
<use xlink:href="#f1_h" transform="matrix(12,0,0,12,177.2,721.6)"/>
<use xlink:href="#f1_8" transform="matrix(12,0,0,12,188.3,721.6)"/>
<use xlink:href="#f1_d" transform="matrix(12,0,0,12,195.5,721.6)"/>
<use xlink:href="#f1_o" transform="matrix(12,0,0,12,210.7,721.6)"/>
<use xlink:href="#f1_f" transform="matrix(12,0,0,12,215.8,721.6)"/>
<use xlink:href="#f1_v" transform="matrix(12,0,0,12,227,721.6)"/>
<use xlink:href="#f1_j" transform="matrix(12,0,0,12,237.2,721.6)"/>
<use xlink:href="#f1_e" transform="matrix(12,0,0,12,243.3,721.6)"/>
<use xlink:href="#f1_j" transform="matrix(12,0,0,12,248.4,721.6)"/>
<use xlink:href="#f1_5" transform="matrix(12,0,0,12,254.5,721.6)"/>
<use xlink:href="#f1_j" transform="matrix(12,0,0,12,265.7,721.6)"/>
<use xlink:href="#f1_d" transform="matrix(12,0,0,12,271.8,721.6)"/>
<use xlink:href="#f1_h" transform="matrix(12,0,0,12,287.1,721.6)"/>
<use xlink:href="#f1_i" transform="matrix(12,0,0,12,298.2,721.6)"/>
<use xlink:href="#f1_p" transform="matrix(12,0,0,12,309.4,721.6)"/>
<use xlink:href="#f1_d" transform="matrix(12,0,0,12,319.2,721.6)"/>
<use xlink:href="#f1_g" transform="matrix(12,0,0,12,329.4,721.6)"/>
<use xlink:href="#f1_q" transform="matrix(12,0,0,12,339.6,721.6)"/>
<use xlink:href="#f1_f" transform="matrix(12,0,0,12,350.8,721.6)"/>
<use xlink:href="#f1_h" transform="matrix(12,0,0,12,362,721.6)"/>
<use xlink:href="#f1_n" transform="matrix(12,0,0,12,373.2,721.6)"/>
<use xlink:href="#f1_h" transform="matrix(12,0,0,12,378.3,721.6)"/>
<use xlink:href="#f1_w" transform="matrix(12,0,0,12,389.4,721.6)"/>
<use xlink:href="#f1_9" transform="matrix(12,0,0,12,400.6,721.6)"/>
<use xlink:href="#f0_1g" transform="matrix(12,0,0,12,106.9,747.3)"/>
<use xlink:href="#f0_5" transform="matrix(12,0,0,12,119.2,747.3)"/>
<use xlink:href="#f0_s" transform="matrix(12,0,0,12,129.3,747.3)"/>
<use xlink:href="#f0_6" transform="matrix(12,0,0,12,138.5,747.3)"/>
<use xlink:href="#f0_e" transform="matrix(12,0,0,12,148.7,747.3)"/>
<use xlink:href="#f0_8" transform="matrix(12,0,0,12,158.9,747.3)"/>
<use xlink:href="#f0_t" transform="matrix(12,0,0,12,163,747.3)"/>
<use xlink:href="#f0_k" transform="matrix(12,0,0,12,173.2,747.3)"/>
<use xlink:href="#f0_t" transform="matrix(12,0,0,12,184.3,747.3)"/>
<use xlink:href="#f0_1i" transform="matrix(12,0,0,12,194.5,747.3)"/>
<use xlink:href="#f0_18" transform="matrix(12,0,0,12,204.7,747.3)"/>
<use xlink:href="#f0_e" transform="matrix(12,0,0,12,215.9,747.3)"/>
<use xlink:href="#f0_s" transform="matrix(12,0,0,12,226.1,747.3)"/>
<use xlink:href="#f0_6" transform="matrix(12,0,0,12,235.2,747.3)"/>
<use xlink:href="#f0_b" transform="matrix(12,0,0,12,245.4,747.3)"/>
<use xlink:href="#f0_t" transform="matrix(12,0,0,12,255.6,747.3)"/>
<use xlink:href="#f0_8" transform="matrix(12,0,0,12,265.8,747.3)"/>
<use xlink:href="#f0_t" transform="matrix(12,0,0,12,269.9,747.3)"/>
<use xlink:href="#f0_r" transform="matrix(12,0,0,12,280.1,747.3)"/>
<use xlink:href="#f0_12" transform="matrix(12,0,0,12,290.3,747.3)"/>
<use xlink:href="#f0_3" transform="matrix(12,0,0,12,304.5,747.3)"/>
<use xlink:href="#f0_1g" transform="matrix(12,0,0,12,315.7,747.3)"/>
<use xlink:href="#f0_18" transform="matrix(12,0,0,12,327.9,747.3)"/>
<use xlink:href="#f0_e" transform="matrix(12,0,0,12,339.1,747.3)"/>
<use xlink:href="#f0_s" transform="matrix(12,0,0,12,349.3,747.3)"/>
<use xlink:href="#f0_6" transform="matrix(12,0,0,12,358.5,747.3)"/>
<use xlink:href="#f0_g" transform="matrix(12,0,0,12,368.7,747.3)"/>
<use xlink:href="#f0_13" transform="matrix(12,0,0,12,378.8,747.3)"/>
<use xlink:href="#f0_t" transform="matrix(12,0,0,12,392,747.3)"/>
<use xlink:href="#f0_d" transform="matrix(12,0,0,12,402.2,747.3)"/>
<use xlink:href="#f0_1a" transform="matrix(12,0,0,12,417.5,747.3)"/>
<use xlink:href="#f0_i" transform="matrix(12,0,0,12,427.7,747.3)"/>
<use xlink:href="#f0_l" transform="matrix(12,0,0,12,437.9,747.3)"/>
<use xlink:href="#f0_e" transform="matrix(12,0,0,12,443,747.3)"/>
<use xlink:href="#f0_k" transform="matrix(12,0,0,12,453.2,747.3)"/>
<use xlink:href="#f0_14" transform="matrix(12,0,0,12,464.4,747.3)"/>
<use xlink:href="#f0_s" transform="matrix(12,0,0,12,476.6,747.3)"/>
<use xlink:href="#f0_7" transform="matrix(12,0,0,12,485.7,747.3)"/>
<use xlink:href="#f0_e" transform="matrix(12,0,0,12,489.8,747.3)"/>
<use xlink:href="#f0_b" transform="matrix(12,0,0,12,500,747.3)"/>
<use xlink:href="#f0_s" transform="matrix(12,0,0,12,510.2,747.3)"/>
<use xlink:href="#f0_e" transform="matrix(12,0,0,12,519.4,747.3)"/>
<use xlink:href="#f0_v" transform="matrix(10,0,0,10,106.9,770)"/>
<use xlink:href="#f0_x" transform="matrix(10,0,0,10,115.4,770)"/>
<use xlink:href="#f0_z" transform="matrix(10,0,0,10,123.9,770)"/>
<use xlink:href="#f0_w" transform="matrix(10,0,0,10,132.4,770)"/>
<use xlink:href="#f0_3" transform="matrix(10,0,0,10,145.2,770)"/>
<use xlink:href="#f0_v" transform="matrix(10,0,0,10,154.5,770)"/>
<use xlink:href="#f0_x" transform="matrix(10,0,0,10,163,770)"/>
<use xlink:href="#f0_v" transform="matrix(10,0,0,10,171.5,770)"/>
<use xlink:href="#f0_11" transform="matrix(10,0,0,10,180,770)"/>
<use xlink:href="#f1_4" transform="matrix(14,0,0,14,73.3,822)"/>
<use xlink:href="#f1_x" transform="matrix(14,0,0,14,87.6,822)"/>
<use xlink:href="#f1_e" transform="matrix(14,0,0,14,99.5,822)"/>
<use xlink:href="#f1_n" transform="matrix(14,0,0,14,105.4,822)"/>
<use xlink:href="#f1_n" transform="matrix(14,0,0,14,111.3,822)"/>
<use xlink:href="#f1_v" transform="matrix(14,0,0,14,117.2,822)"/>
<use xlink:href="#f0_1c" transform="matrix(10,0,0,10,82.5,846.5)"/>
<use xlink:href="#f0_t" transform="matrix(10,0,0,10,93.5,846.5)"/>
<use xlink:href="#f0_f" transform="matrix(10,0,0,10,102,846.5)"/>
<use xlink:href="#f0_e" transform="matrix(10,0,0,10,110.5,846.5)"/>
<use xlink:href="#f0_n" transform="matrix(10,0,0,10,119,846.5)"/>
<use xlink:href="#f0_j" transform="matrix(10,0,0,10,123.2,846.5)"/>
<use xlink:href="#f0_16" transform="matrix(10,0,0,10,126.6,846.5)"/>
<use xlink:href="#f0_1r" transform="matrix(10,0,0,10,147,846.5)"/>
<use xlink:href="#f0_1d" transform="matrix(10,0,0,10,165,846.5)"/>
<use xlink:href="#f0_t" transform="matrix(10,0,0,10,176,846.5)"/>
<use xlink:href="#f0_s" transform="matrix(10,0,0,10,184.5,846.5)"/>
<use xlink:href="#f0_o" transform="matrix(10,0,0,10,192.2,846.5)"/>
<use xlink:href="#f0_e" transform="matrix(10,0,0,10,199.8,846.5)"/>
<use xlink:href="#f0_k" transform="matrix(10,0,0,10,208.3,846.5)"/>
<use xlink:href="#f0_1r" transform="matrix(10,0,0,10,226.1,846.5)"/>
<use xlink:href="#f0_18" transform="matrix(10,0,0,10,244.1,846.5)"/>
<use xlink:href="#f0_12" transform="matrix(10,0,0,10,253.5,846.5)"/>
<use xlink:href="#f0_1a" transform="matrix(10,0,0,10,261.1,846.5)"/>
<use xlink:href="#f0_e" transform="matrix(10,0,0,10,269.6,846.5)"/>
<use xlink:href="#f0_14" transform="matrix(10,0,0,10,278.1,846.5)"/>
<use xlink:href="#f0_s" transform="matrix(10,0,0,10,288.3,846.5)"/>
<use xlink:href="#f0_k" transform="matrix(10,0,0,10,295.9,846.5)"/>
<use xlink:href="#f0_7" transform="matrix(10,0,0,10,301,846.5)"/>
<use xlink:href="#f0_1a" transform="matrix(10,0,0,10,304.4,846.5)"/>
<use xlink:href="#f0_l" transform="matrix(10,0,0,10,312.9,846.5)"/>
<use xlink:href="#f0_1r" transform="matrix(10,0,0,10,329.8,846.5)"/>
<use xlink:href="#f0_14" transform="matrix(10,0,0,10,347.8,846.5)"/>
<use xlink:href="#f0_t" transform="matrix(10,0,0,10,358,846.5)"/>
<use xlink:href="#f0_1i" transform="matrix(10,0,0,10,366.5,846.5)"/>
<use xlink:href="#f0_l" transform="matrix(10,0,0,10,370.7,846.5)"/>
<use xlink:href="#f0_1s" transform="matrix(10,0,0,10,375,846.5)"/>
<use xlink:href="#f0_5" transform="matrix(10,0,0,10,386,846.5)"/>
<use xlink:href="#f0_k" transform="matrix(10,0,0,10,394.5,846.5)"/>
<use xlink:href="#f0_e" transform="matrix(10,0,0,10,399.6,846.5)"/>
<use xlink:href="#f0_1d" transform="matrix(10,0,0,10,412.3,846.5)"/>
<use xlink:href="#f0_e" transform="matrix(10,0,0,10,423.3,846.5)"/>
<use xlink:href="#f0_1f" transform="matrix(10,0,0,10,431.8,846.5)"/>
<use xlink:href="#f0_e" transform="matrix(10,0,0,10,439.5,846.5)"/>
<use xlink:href="#f0_8" transform="matrix(10,0,0,10,448,846.5)"/>
<use xlink:href="#f0_t" transform="matrix(10,0,0,10,451.4,846.5)"/>
<use xlink:href="#f0_1a" transform="matrix(10,0,0,10,459.9,846.5)"/>
<use xlink:href="#f0_d" transform="matrix(10,0,0,10,468.4,846.5)"/>
<use xlink:href="#f0_e" transform="matrix(10,0,0,10,481.1,846.5)"/>
<use xlink:href="#f0_b" transform="matrix(10,0,0,10,489.6,846.5)"/>
<use xlink:href="#f0_l" transform="matrix(10,0,0,10,498.1,846.5)"/>
<use xlink:href="#f0_1r" transform="matrix(10,0,0,10,515,846.5)"/>
<use xlink:href="#f0_1b" transform="matrix(10,0,0,10,533,846.5)"/>
<use xlink:href="#f0_k" transform="matrix(10,0,0,10,543.2,846.5)"/>
<use xlink:href="#f0_t" transform="matrix(10,0,0,10,548.3,846.5)"/>
<use xlink:href="#f0_r" transform="matrix(10,0,0,10,556.8,846.5)"/>
<use xlink:href="#f0_k" transform="matrix(10,0,0,10,565.3,846.5)"/>
<use xlink:href="#f0_5" transform="matrix(10,0,0,10,570.4,846.5)"/>
<use xlink:href="#f0_d" transform="matrix(10,0,0,10,578.9,846.5)"/>
<use xlink:href="#f0_d" transform="matrix(10,0,0,10,591.6,846.5)"/>
<use xlink:href="#f0_7" transform="matrix(10,0,0,10,604.3,846.5)"/>
<use xlink:href="#f0_b" transform="matrix(10,0,0,10,607.7,846.5)"/>
<use xlink:href="#f0_r" transform="matrix(10,0,0,10,616.2,846.5)"/>
<use xlink:href="#f0_1r" transform="matrix(10,0,0,10,637.4,846.5)"/>
<use xlink:href="#f0_1n" transform="matrix(10,0,0,10,655.4,846.5)"/>
<use xlink:href="#f0_e" transform="matrix(10,0,0,10,669.9,846.5)"/>
<use xlink:href="#f0_a" transform="matrix(10,0,0,10,678.3,846.5)"/>
<use xlink:href="#f0_1d" transform="matrix(10,0,0,10,691.1,846.5)"/>
<use xlink:href="#f0_e" transform="matrix(10,0,0,10,702.1,846.5)"/>
<use xlink:href="#f0_1f" transform="matrix(10,0,0,10,710.6,846.5)"/>
<use xlink:href="#f0_e" transform="matrix(10,0,0,10,718.2,846.5)"/>
<use xlink:href="#f0_8" transform="matrix(10,0,0,10,726.7,846.5)"/>
<use xlink:href="#f0_t" transform="matrix(10,0,0,10,730.1,846.5)"/>
<use xlink:href="#f0_1a" transform="matrix(10,0,0,10,738.6,846.5)"/>
<use xlink:href="#f0_d" transform="matrix(10,0,0,10,747.1,846.5)"/>
<use xlink:href="#f0_e" transform="matrix(10,0,0,10,759.8,846.5)"/>
<use xlink:href="#f0_b" transform="matrix(10,0,0,10,768.3,846.5)"/>
<use xlink:href="#f0_l" transform="matrix(10,0,0,10,776.8,846.5)"/>
<use xlink:href="#f0_1r" transform="matrix(10,0,0,10,793.8,846.5)"/>
<use xlink:href="#f0_14" transform="matrix(10,0,0,10,82.5,867.8)"/>
<use xlink:href="#f0_12" transform="matrix(10,0,0,10,92.7,867.8)"/>
<use xlink:href="#f0_16" transform="matrix(10,0,0,10,100.3,867.8)"/>
<use xlink:href="#f0_l" transform="matrix(10,0,0,10,108,867.8)"/>
<use xlink:href="#f0_e" transform="matrix(10,0,0,10,112.2,867.8)"/>
<use xlink:href="#f0_d" transform="matrix(10,0,0,10,120.7,867.8)"/>
<use xlink:href="#f0_c" transform="matrix(10,0,0,10,137.6,867.8)"/>
<use xlink:href="#f0_f" transform="matrix(10,0,0,10,147.8,867.8)"/>
<use xlink:href="#f0_d" transform="matrix(10,0,0,10,156.3,867.8)"/>
<use xlink:href="#f0_7" transform="matrix(10,0,0,10,169,867.8)"/>
<use xlink:href="#f0_b" transform="matrix(10,0,0,10,172.4,867.8)"/>
<use xlink:href="#f0_7" transform="matrix(10,0,0,10,180.9,867.8)"/>
<use xlink:href="#f0_16" transform="matrix(10,0,0,10,184.3,867.8)"/>
<use xlink:href="#f0_l" transform="matrix(10,0,0,10,192,867.8)"/>
<use xlink:href="#f0_k" transform="matrix(10,0,0,10,196.2,867.8)"/>
<use xlink:href="#f0_5" transform="matrix(10,0,0,10,201.3,867.8)"/>
<use xlink:href="#f0_l" transform="matrix(10,0,0,10,209.8,867.8)"/>
<use xlink:href="#f0_7" transform="matrix(10,0,0,10,214,867.8)"/>
<use xlink:href="#f0_t" transform="matrix(10,0,0,10,217.4,867.8)"/>
<use xlink:href="#f0_b" transform="matrix(10,0,0,10,225.9,867.8)"/>
<use xlink:href="#f0_1r" transform="matrix(10,0,0,10,247.1,867.8)"/>
<use xlink:href="#f0_1b" transform="matrix(10,0,0,10,265.1,867.8)"/>
<use xlink:href="#f0_12" transform="matrix(10,0,0,10,275.3,867.8)"/>
<use xlink:href="#f0_l" transform="matrix(10,0,0,10,282.9,867.8)"/>
<use xlink:href="#f0_6" transform="matrix(10,0,0,10,287.2,867.8)"/>
<use xlink:href="#f0_t" transform="matrix(10,0,0,10,295.7,867.8)"/>
<use xlink:href="#f0_b" transform="matrix(10,0,0,10,304.2,867.8)"/>
<use xlink:href="#f0_1l" transform="matrix(10,0,0,10,316.9,867.8)"/>
<use xlink:href="#f0_1b" transform="matrix(10,0,0,10,322,867.8)"/>
<use xlink:href="#f0_k" transform="matrix(10,0,0,10,332.1,867.8)"/>
<use xlink:href="#f0_t" transform="matrix(10,0,0,10,337.2,867.8)"/>
<use xlink:href="#f0_r" transform="matrix(10,0,0,10,345.7,867.8)"/>
<use xlink:href="#f0_k" transform="matrix(10,0,0,10,354.2,867.8)"/>
<use xlink:href="#f0_5" transform="matrix(10,0,0,10,359.3,867.8)"/>
<use xlink:href="#f0_d" transform="matrix(10,0,0,10,367.8,867.8)"/>
<use xlink:href="#f0_d" transform="matrix(10,0,0,10,380.5,867.8)"/>
<use xlink:href="#f0_7" transform="matrix(10,0,0,10,393.3,867.8)"/>
<use xlink:href="#f0_b" transform="matrix(10,0,0,10,396.6,867.8)"/>
<use xlink:href="#f0_r" transform="matrix(10,0,0,10,405.1,867.8)"/>
<use xlink:href="#f0_1t" transform="matrix(10,0,0,10,417.9,867.8)"/>
<use xlink:href="#f0_5" transform="matrix(10,0,0,10,426.4,867.8)"/>
<use xlink:href="#f0_b" transform="matrix(10,0,0,10,434.9,867.8)"/>
<use xlink:href="#f0_r" transform="matrix(10,0,0,10,443.3,867.8)"/>
<use xlink:href="#f0_i" transform="matrix(10,0,0,10,451.8,867.8)"/>
<use xlink:href="#f0_5" transform="matrix(10,0,0,10,460.3,867.8)"/>
<use xlink:href="#f0_r" transform="matrix(10,0,0,10,468.8,867.8)"/>
<use xlink:href="#f0_e" transform="matrix(10,0,0,10,477.3,867.8)"/>
<use xlink:href="#f0_1o" transform="matrix(10,0,0,10,485.8,867.8)"/>
<use xlink:href="#f0_1r" transform="matrix(10,0,0,10,503.6,867.8)"/>
<use xlink:href="#f0_1u" transform="matrix(10,0,0,10,521.6,867.8)"/>
<use xlink:href="#f0_5" transform="matrix(10,0,0,10,529.3,867.8)"/>
<use xlink:href="#f0_1f" transform="matrix(10,0,0,10,537.8,867.8)"/>
<use xlink:href="#f0_5" transform="matrix(10,0,0,10,545.4,867.8)"/>
<use xlink:href="#f0_14" transform="matrix(10,0,0,10,553.9,867.8)"/>
<use xlink:href="#f0_s" transform="matrix(10,0,0,10,564.1,867.8)"/>
<use xlink:href="#f0_k" transform="matrix(10,0,0,10,571.7,867.8)"/>
<use xlink:href="#f0_7" transform="matrix(10,0,0,10,576.8,867.8)"/>
<use xlink:href="#f0_1a" transform="matrix(10,0,0,10,580.2,867.8)"/>
<use xlink:href="#f0_l" transform="matrix(10,0,0,10,588.7,867.8)"/>
<use xlink:href="#f0_1r" transform="matrix(10,0,0,10,605.6,867.8)"/>
<use xlink:href="#f0_1e" transform="matrix(10,0,0,10,623.7,867.8)"/>
<use xlink:href="#f0_t" transform="matrix(10,0,0,10,636.4,867.8)"/>
<use xlink:href="#f0_b" transform="matrix(10,0,0,10,644.9,867.8)"/>
<use xlink:href="#f0_r" transform="matrix(10,0,0,10,653.4,867.8)"/>
<use xlink:href="#f0_t" transform="matrix(10,0,0,10,661.9,867.8)"/>
<use xlink:href="#f0_1d" transform="matrix(10,0,0,10,670.4,867.8)"/>
<use xlink:href="#f0_1g" transform="matrix(10,0,0,10,681.4,867.8)"/>
</g>
<g fill="#727272" >
<use xlink:href="#f0_4" transform="matrix(10,0,0,10,394.1,1166.6)"/>
<use xlink:href="#f0_5" transform="matrix(10,0,0,10,405.1,1166.6)"/>
<use xlink:href="#f0_6" transform="matrix(10,0,0,10,413.6,1166.6)"/>
<use xlink:href="#f0_7" transform="matrix(10,0,0,10,422.1,1166.6)"/>
<use xlink:href="#f0_8" transform="matrix(10,0,0,10,425.5,1166.6)"/>
<use xlink:href="#f0_9" transform="matrix(10,0,0,10,433.1,1166.6)"/>
<use xlink:href="#f0_5" transform="matrix(10,0,0,10,443.3,1166.6)"/>
<use xlink:href="#f0_a" transform="matrix(10,0,0,10,451.8,1166.6)"/>
<use xlink:href="#f0_5" transform="matrix(10,0,0,10,460.3,1166.6)"/>
<use xlink:href="#f0_b" transform="matrix(10,0,0,10,468.8,1166.6)"/>
<use xlink:href="#f0_7" transform="matrix(10,0,0,10,477.3,1166.6)"/>
<use xlink:href="#f0_3" transform="matrix(10,0,0,10,484.9,1166.6)"/>
<use xlink:href="#f0_1a" transform="matrix(10,0,0,10,494.2,1166.6)"/>
<use xlink:href="#f0_5" transform="matrix(10,0,0,10,502.7,1166.6)"/>
<use xlink:href="#f0_r" transform="matrix(10,0,0,10,511.2,1166.6)"/>
<use xlink:href="#f0_e" transform="matrix(10,0,0,10,519.7,1166.6)"/>
<use xlink:href="#f0_z" transform="matrix(10,0,0,10,532.4,1166.6)"/>
</g>
</svg>